<svg xmlns="http://www.w3.org/2000/svg" viewBox="0 0 440 440" width="440" height="440">
  <g fill="none" stroke="#1a8a7d" stroke-width="10" stroke-linecap="round" stroke-linejoin="round">
    <!-- Body -->
    <path d="M120,260 C120,220 140,200 175,195 C195,192 215,198 230,210 C250,225 260,240 285,238 C315,236 330,220 340,205"/>
    <!-- Head -->
    <circle cx="310" cy="175" r="38"/>
    <!-- Snout -->
    <path d="M335,185 C348,188 358,195 358,202 C358,210 348,215 335,212"/>
    <!-- Nose -->
    <circle cx="350" cy="198" r="6" fill="#1a8a7d"/>
    <!-- Ear -->
    <path d="M290,148 C278,128 268,118 272,138 C276,152 285,158 295,155"/>
    <!-- Front legs -->
    <line x1="185" y1="260" x2="175" y2="340"/>
    <line x1="215" y1="265" x2="210" y2="345"/>
    <!-- Back legs -->
    <line x1="270" y1="255" x2="268" y2="340"/>
    <line x1="295" y1="248" x2="300" y2="335"/>
    <!-- Tail -->
    <path d="M120,255 C100,240 82,220 90,200 C96,185 112,192 115,210"/>
    <!-- Paws -->
    <path d="M165,340 C168,350 178,355 188,350" stroke-width="7"/>
    <path d="M200,345 C203,355 213,360 223,355" stroke-width="7"/>
    <path d="M258,340 C261,350 271,355 281,350" stroke-width="7"/>
    <path d="M290,335 C293,345 303,350 313,345" stroke-width="7"/>
  </g>
</svg>
