<?xml version="1.0"?>
<svg width="1024" height="1024" xmlns="http://www.w3.org/2000/svg" xmlns:svg="http://www.w3.org/2000/svg" preserveAspectRatio="xMidYMid meet" version="1.0">

 <g class="layer">
  <title>Layer 1</title>
  <g fill="#000000" id="svg_1" transform="matrix(0.1, 0, 0, -0.1, 0, 0)">
   <path d="m5171,-390c-25,-5 -87,-24 -139,-41l-95,-32l-19,27c-16,21 -28,26 -64,26c-72,0 -252,-56 -329,-102c-29,-17 -30,-17 -57,9c-40,38 -83,34 -187,-17c-47,-23 -93,-46 -101,-51c-8,-5 -31,-16 -50,-25c-19,-10 -43,-24 -53,-32c-15,-14 -20,-13 -40,6c-54,51 -153,16 -341,-122c-64,-46 -68,-48 -86,-31c-14,13 -28,15 -67,9c-64,-9 -100,-34 -212,-143c-95,-93 -129,-110 -149,-75c-8,14 -13,14 -33,4c-67,-36 -238,-185 -270,-237c-22,-35 -38,-40 -69,-21c-48,30 -150,-66 -238,-223c-44,-77 -52,-83 -112,-75c-56,7 -94,-10 -106,-47c-3,-12 -24,-45 -45,-73c-21,-27 -48,-70 -59,-95c-41,-87 -55,-104 -91,-110c-49,-8 -73,-23 -114,-74c-37,-45 -115,-210 -115,-243c0,-27 -20,-42 -55,-42c-48,0 -101,-70 -131,-172c-9,-29 -25,-69 -35,-90c-10,-20 -19,-51 -21,-70c-2,-42 -14,-58 -45,-58c-54,0 -75,-27 -120,-154c-21,-59 -26,-96 -30,-214c-5,-126 -4,-145 12,-162c45,-49 -41,-72 -97,-25c-34,28 -41,30 -55,13c-27,-34 -76,-292 -71,-372c3,-46 1,-51 -23,-63c-19,-9 -30,-28 -44,-73c-15,-50 -17,-81 -12,-199c6,-150 6,-151 -50,-190c-25,-17 -33,-31 -39,-66c-6,-44 16,-209 38,-287c13,-45 4,-84 -21,-91c-11,-2 -27,-20 -37,-38c-15,-30 -16,-42 -4,-114c7,-44 15,-84 19,-90c8,-15 42,-134 48,-173c5,-29 1,-38 -26,-63c-30,-27 -31,-31 -25,-81c3,-29 10,-70 16,-91c6,-28 6,-43 -3,-53c-19,-23 -63,11 -141,108c-38,48 -82,96 -96,106c-38,27 -81,33 -108,16c-19,-13 -22,-27 -28,-117c-10,-143 6,-230 60,-342c68,-138 60,-153 -57,-104c-41,17 -112,47 -159,65c-47,19 -101,43 -120,53c-19,10 -53,24 -75,31c-22,7 -45,17 -52,22c-24,19 -67,4 -91,-32c-27,-40 -26,-71 7,-143c12,-25 21,-49 21,-52c0,-15 140,-213 155,-219c9,-3 22,-21 30,-39c8,-19 21,-39 29,-47c9,-7 16,-18 17,-24c0,-6 22,-38 49,-71c53,-64 151,-205 186,-266c12,-20 42,-64 68,-97c25,-33 46,-67 46,-76c0,-21 -53,-56 -142,-93c-43,-17 -92,-40 -110,-51c-65,-39 -129,-72 -139,-72c-15,0 -167,-102 -201,-135c-36,-34 -43,-63 -28,-127c18,-74 35,-106 89,-160c25,-26 71,-72 101,-103c30,-32 85,-82 122,-111c38,-30 94,-79 125,-108l58,-54l-24,-43c-14,-24 -37,-60 -53,-79c-15,-19 -28,-38 -28,-42c0,-4 -23,-38 -51,-75c-28,-37 -54,-75 -57,-83c-3,-8 -13,-24 -22,-35c-10,-11 -53,-72 -96,-135c-42,-63 -101,-150 -131,-192c-29,-42 -53,-81 -53,-86c0,-5 10,-14 22,-21c13,-7 34,-27 48,-46c102,-136 226,-255 316,-301c16,-9 40,-25 54,-38c27,-25 235,-171 287,-202c18,-10 84,-51 146,-91c63,-39 168,-100 233,-134c65,-34 140,-75 167,-91c26,-15 53,-28 58,-28c10,0 48,-18 89,-41c38,-22 120,-59 130,-59c7,0 24,-8 38,-19c43,-30 228,-103 412,-163c52,-17 100,-34 105,-38c15,-12 182,-65 325,-104c115,-31 196,-50 445,-105c50,-11 160,-30 245,-41c569,-73 587,-75 910,-100c74,-6 142,-13 150,-16c8,-3 340,-8 737,-11c729,-5 944,1 1208,32c66,8 201,21 300,30c99,9 194,20 210,25c17,5 68,14 115,20c262,35 306,42 315,51c5,5 24,9 42,9c37,0 308,59 418,91c123,36 268,81 340,106c39,13 90,30 115,38c75,22 181,64 260,102c41,19 104,46 140,58c36,12 79,30 95,39c17,9 110,54 209,101c98,47 208,104 245,128c36,24 107,65 156,92c148,80 159,86 195,114c19,14 49,35 66,46c156,98 377,279 512,418l73,76l-17,32c-9,18 -37,62 -62,98c-64,92 -74,107 -122,186c-79,130 -189,290 -229,333c-40,44 -57,94 -44,128c11,30 98,126 149,164c68,52 196,171 257,239c40,45 56,72 65,111c21,90 16,125 -20,160c-18,18 -48,39 -67,47c-19,8 -60,32 -92,53c-31,22 -90,55 -130,75c-107,52 -272,150 -283,167c-6,11 -2,25 16,49c14,19 35,54 46,79c12,25 50,80 86,123c36,43 66,82 66,87c0,5 13,24 29,42c30,35 70,91 127,177c20,30 62,86 93,124c31,38 66,83 79,101c33,45 82,179 82,223c0,33 -4,41 -34,57c-39,21 -64,18 -141,-19c-27,-13 -75,-33 -105,-44c-51,-18 -208,-85 -292,-125c-20,-10 -42,-15 -48,-11c-14,9 -4,56 15,71c17,13 81,174 98,247c6,29 12,96 12,149c-1,83 -4,101 -21,125c-39,53 -101,38 -179,-43c-45,-46 -63,-52 -83,-32c-23,23 -14,55 22,77c19,12 37,28 40,37c12,30 5,180 -10,239c-8,33 -20,84 -27,114c-12,57 -12,56 39,87c17,10 18,17 6,108c-7,54 -23,130 -36,170c-39,116 -40,132 -17,165c41,57 22,154 -61,322c-26,53 -48,101 -48,106c0,5 11,20 25,33c42,39 37,57 -72,279c-63,129 -65,135 -50,160c14,24 13,31 -5,86c-12,33 -31,72 -43,87c-13,15 -32,47 -45,72c-12,25 -41,68 -66,95c-49,55 -53,70 -24,96c18,16 18,20 5,51c-16,38 -155,234 -166,234c-4,0 -22,12 -39,27c-33,27 -33,30 -15,104c5,19 0,37 -19,66c-22,33 -142,148 -239,230c-24,20 -25,25 -16,53c8,23 8,38 -1,61c-16,36 -111,119 -220,190c-74,49 -80,55 -80,87c0,64 -131,185 -267,248l-73,33l0,44c0,34 -6,48 -27,68c-35,32 -106,73 -164,95c-24,9 -66,25 -94,36c-27,10 -58,21 -67,25c-12,3 -18,18 -20,46c-3,39 -7,44 -58,75c-73,43 -144,69 -248,90c-85,17 -87,18 -90,47c-7,59 -58,91 -198,124c-50,11 -113,21 -138,21c-59,0 -86,14 -86,45c0,13 -11,32 -25,44c-39,30 -81,37 -273,47c-101,6 -125,10 -129,23c-10,28 -36,52 -72,67c-43,18 -261,21 -305,4c-39,-15 -60,-6 -79,35c-13,26 -24,35 -53,41c-49,9 -181,-3 -284,-26l-85,-19l-25,22c-14,12 -31,28 -37,36c-16,18 -110,24 -172,11zm129,-53c0,-2 -11,-31 -25,-65c-31,-77 -32,-141 -3,-193c12,-21 19,-41 16,-44c-14,-14 -134,-23 -182,-14c-70,13 -149,53 -185,95c-34,38 -39,68 -16,100c17,26 145,89 217,108c46,13 178,22 178,13zm-450,-20c0,-2 -9,-30 -21,-63c-28,-79 -21,-144 21,-195c16,-21 26,-40 21,-43c-4,-3 -35,-12 -67,-21c-124,-32 -246,-9 -318,61c-39,38 -42,48 -23,81c39,69 255,179 360,182c15,1 27,-1 27,-2zm900,-3c0,-4 -14,-35 -31,-70c-37,-74 -42,-141 -15,-192c10,-19 15,-36 13,-39c-3,-2 -30,-7 -60,-10c-107,-11 -270,61 -311,138c-40,74 4,114 175,159c69,18 229,28 229,14zm425,-78l26,-17l-35,-39c-56,-63 -67,-96 -50,-166c7,-31 10,-62 7,-67c-3,-5 -34,-7 -70,-4c-84,6 -180,54 -234,116c-67,76 -66,128 3,156c116,46 297,57 353,21zm-1787,-82c-14,-95 -7,-127 34,-164l30,-28l-38,-25c-105,-69 -260,-60 -346,21c-55,51 -33,99 80,177c74,50 232,119 244,107c4,-4 3,-44 -4,-88zm2178,-19c81,-25 82,-26 20,-87c-57,-57 -75,-102 -62,-153c21,-86 23,-79 -22,-71c-144,22 -273,121 -306,232c-10,34 23,64 84,79c76,18 225,18 286,0zm-2603,-98c-6,-98 7,-133 62,-167c19,-12 35,-26 35,-31c0,-24 -189,-89 -260,-89c-45,0 -164,59 -168,83c-10,52 39,118 143,193c60,42 159,94 181,94c8,0 10,-25 7,-83zm2950,-46c42,-11 92,-28 112,-39l37,-19l-53,-42c-75,-60 -82,-72 -82,-153l0,-70l-31,6c-49,10 -148,60 -187,94c-48,42 -102,143 -93,176c7,28 30,52 59,59c49,12 167,6 238,-12zm-1493,-5c71,-18 162,-27 280,-27c96,0 234,-27 275,-53c25,-16 88,-25 185,-27c76,-1 157,-27 221,-71c15,-9 66,-24 115,-33c115,-20 149,-31 204,-68c25,-16 92,-47 150,-68c165,-59 182,-68 231,-118c46,-49 100,-79 179,-101c59,-16 92,-39 167,-116c34,-35 66,-64 71,-64c5,0 15,-7 23,-16c16,-19 103,-64 125,-64c16,0 159,-143 169,-170c3,-8 33,-35 67,-60c77,-57 131,-112 173,-175c30,-46 103,-124 185,-200c39,-34 100,-127 100,-150c0,-32 40,-92 105,-155c74,-72 80,-83 134,-214c21,-51 63,-129 94,-174c39,-58 59,-99 67,-138c15,-73 62,-189 110,-269c32,-56 38,-76 43,-147c6,-82 43,-194 84,-258c12,-18 17,-55 20,-148c3,-111 7,-133 35,-206c23,-58 31,-93 28,-121c-10,-97 -3,-271 14,-325c17,-57 14,-146 -6,-200c-16,-40 -19,-134 -9,-220c9,-72 8,-86 -10,-133c-26,-66 -41,-164 -43,-292c-3,-102 -9,-125 -59,-206c-32,-53 -219,-279 -230,-279c-18,0 -198,-184 -235,-240c-54,-81 -95,-170 -94,-205c1,-33 47,-81 105,-109c18,-8 43,-26 56,-40c20,-21 23,-32 19,-75c-4,-45 -13,-59 -92,-153c-48,-57 -101,-123 -117,-148c-20,-30 -54,-60 -101,-90c-39,-25 -88,-61 -107,-81c-20,-20 -51,-44 -68,-53c-38,-19 -38,-20 -17,-92c15,-52 15,-56 -6,-100c-15,-30 -34,-51 -59,-63c-75,-39 -160,-111 -215,-184c-61,-81 -96,-112 -166,-146c-70,-33 -124,-76 -166,-132c-22,-28 -51,-57 -66,-65c-40,-21 -85,-18 -98,6c-12,23 -50,165 -50,189c0,9 -7,29 -15,45c-8,15 -17,54 -20,85c-3,31 -12,80 -20,110c-18,69 -10,82 60,115c33,15 55,31 55,41c0,49 67,96 200,140c88,29 101,42 120,115c13,49 78,120 144,155c50,27 66,66 64,156c-2,83 11,116 62,164c53,50 72,108 64,190c-17,187 -19,169 16,203c18,18 42,32 55,32c30,0 69,50 85,109c13,50 6,141 -15,182c-8,14 -16,72 -18,130c-4,89 -9,116 -37,183c-18,43 -48,97 -66,119c-18,23 -56,74 -84,112c-27,39 -79,108 -116,155c-72,94 -154,251 -160,308c-2,20 -6,82 -9,137c-4,82 -11,118 -41,200c-20,55 -42,129 -50,165c-8,35 -19,69 -23,75c-29,36 -6,148 38,185c21,18 41,72 41,111c0,26 4,28 58,39c86,17 88,18 130,61c59,58 91,66 149,38c59,-29 168,-32 224,-7c55,24 162,134 188,193c19,41 22,61 17,114c-3,35 -12,74 -20,86c-17,26 -66,38 -99,26c-92,-36 -108,-47 -157,-107c-50,-62 -79,-80 -117,-72c-27,5 -29,44 -3,58c27,14 50,68 50,115c0,26 -9,48 -31,75c-26,32 -31,47 -29,82c12,182 -1,239 -106,453c-92,188 -165,257 -364,344c-159,70 -453,94 -654,55c-94,-18 -139,-40 -198,-93c-24,-22 -72,-66 -107,-98c-49,-44 -72,-75 -98,-130c-40,-87 -79,-120 -149,-128c-67,-8 -79,-12 -114,-43c-22,-19 -30,-35 -30,-59c0,-29 -3,-33 -25,-33c-15,0 -28,7 -32,18c-4,9 -14,22 -22,28c-13,10 -11,19 21,66c19,30 54,75 77,102c22,26 41,53 41,60c0,7 8,24 19,37c21,28 42,86 45,132c2,18 4,39 5,47c0,9 28,44 61,79c69,73 75,92 75,236c0,82 -5,112 -25,165c-40,106 -106,190 -149,190c-10,0 -29,12 -42,28c-28,30 -79,130 -79,155c0,9 -4,18 -9,21c-4,3 -11,18 -14,33c-10,46 -115,203 -172,256c-16,15 -71,48 -122,72c-85,42 -98,45 -170,45c-110,0 -241,-18 -288,-39c-22,-10 -64,-40 -93,-67c-42,-39 -58,-63 -78,-117c-13,-37 -24,-85 -24,-106c0,-47 -18,-56 -125,-66c-94,-9 -150,-22 -208,-47c-55,-25 -81,-59 -83,-108c-1,-31 7,-43 78,-111c65,-63 78,-81 78,-108c0,-53 -33,-58 -170,-26c-191,44 -191,44 -207,90c-19,54 -9,88 43,146c24,27 47,61 50,74c11,45 -6,114 -36,148c-27,31 -31,32 -107,31c-107,-2 -160,-18 -204,-63c-53,-52 -61,-112 -25,-174c15,-24 50,-67 80,-95c29,-28 56,-58 60,-67c11,-30 -15,-104 -51,-143c-42,-45 -64,-87 -100,-189c-24,-68 -28,-93 -28,-193c0,-155 14,-188 108,-256c46,-33 47,-35 47,-86c1,-207 159,-446 371,-560c41,-22 121,-45 225,-64c30,-5 36,-29 22,-76c-20,-68 -78,-70 -216,-7c-37,17 -101,44 -142,61c-41,16 -100,40 -130,53c-154,66 -257,52 -505,-64c-228,-107 -277,-135 -339,-191c-44,-39 -76,-61 -98,-64c-18,-3 -70,-9 -116,-15c-52,-7 -109,-22 -153,-42c-39,-17 -76,-28 -82,-25c-7,3 -34,19 -62,36c-92,56 -116,64 -214,68c-124,5 -208,-16 -261,-67c-33,-31 -39,-44 -45,-95c-4,-32 -5,-99 -1,-147l7,-89l-33,-20c-69,-42 -141,-62 -268,-71c-105,-8 -131,-13 -161,-33c-51,-34 -74,-86 -74,-171c0,-75 17,-117 80,-199c29,-38 30,-42 26,-125c-11,-195 -5,-385 13,-468c27,-128 72,-256 133,-383c30,-63 79,-168 109,-233c29,-65 69,-139 88,-166c106,-143 426,-389 581,-445c19,-7 236,-46 256,-46c21,0 6,-37 -31,-75c-46,-47 -87,-92 -190,-206c-41,-46 -84,-93 -95,-105c-26,-27 -107,-122 -121,-142c-9,-12 -15,-12 -35,-2c-66,34 -210,153 -375,311c-152,145 -251,211 -337,224c-40,6 -44,4 -105,-50c-34,-31 -68,-55 -75,-52c-16,6 -37,73 -37,116c0,25 9,41 40,68c57,51 56,93 -5,192c-57,92 -72,110 -206,248c-59,61 -110,122 -113,135c-3,13 -7,57 -10,98c-3,53 -15,104 -42,175c-35,95 -38,108 -45,265c-4,109 -13,184 -24,220c-11,35 -16,78 -14,120c4,76 3,209 -2,335c-3,68 1,105 15,150c14,46 19,95 20,210c2,138 5,156 30,220c21,55 29,93 33,175c5,99 8,111 53,205c51,106 70,170 70,231c0,21 5,66 11,100c10,57 17,70 84,148c78,91 108,153 127,261c10,55 16,65 79,128c68,67 94,111 134,222c12,35 39,71 86,120c108,112 189,223 189,262c0,7 10,18 23,24c32,18 148,112 178,145c14,16 41,55 60,88c19,32 43,62 54,66c80,31 245,153 245,181c0,13 48,61 76,75c16,9 56,27 88,40c33,13 62,28 65,32c4,4 23,18 43,31c21,12 58,46 82,75c36,41 56,56 100,69c31,10 92,36 136,57c44,22 82,40 85,40c4,0 27,16 52,35c25,19 62,39 82,44c20,5 55,14 77,20c23,6 53,11 66,11c14,0 31,7 38,15c7,8 20,15 30,15c9,0 28,8 41,19c13,10 35,22 49,26c14,4 30,11 35,15c6,5 48,14 95,20c133,19 196,36 248,66c44,27 56,29 197,35c120,5 165,11 225,31c69,22 82,23 165,15c70,-7 106,-6 160,6c93,19 130,20 195,3zm-1870,-106c0,-84 13,-114 71,-164c36,-31 40,-38 29,-51c-22,-26 -106,-65 -186,-85c-65,-17 -79,-17 -124,-6c-92,24 -121,75 -80,140c23,39 197,201 237,221c49,26 53,21 53,-55zm3735,-84c44,-14 100,-39 123,-55l44,-29l-57,-38c-77,-51 -97,-84 -92,-152c2,-29 0,-55 -4,-58c-14,-8 -81,25 -137,69c-135,103 -191,252 -110,287c36,16 146,4 233,-24zm-4125,-123c0,-84 50,-160 123,-186c25,-9 -50,-70 -137,-113c-66,-33 -102,-44 -135,-44c-56,0 -111,26 -130,61c-13,24 -13,32 3,72c27,72 218,264 264,266c8,1 12,-17 12,-56zm4435,-90c100,-24 225,-94 225,-125c0,-10 -14,-21 -35,-28c-73,-24 -114,-78 -130,-169c-4,-22 -11,-41 -16,-41c-21,0 -88,52 -151,117c-51,54 -70,81 -82,123c-19,63 -20,84 -5,111c21,41 67,43 194,12zm-1998,-79c96,-19 156,-50 212,-106c104,-103 166,-212 206,-359c14,-53 32,-97 42,-105c10,-7 42,-20 71,-29c29,-9 66,-28 83,-43c43,-39 80,-147 86,-252c5,-82 4,-87 -22,-118c-15,-17 -33,-32 -40,-32c-8,0 -20,29 -31,72c-9,40 -37,113 -62,163c-60,121 -185,246 -316,319c-60,34 -97,61 -115,87c-14,21 -40,46 -58,55c-27,15 -38,16 -83,6c-28,-7 -68,-12 -89,-12c-39,0 -233,61 -257,81c-32,26 -10,140 37,194c47,54 122,82 247,94c7,0 47,-6 89,-15zm-2806,-93c16,-83 40,-118 99,-144c27,-12 50,-27 50,-34c0,-36 -165,-151 -250,-174c-40,-11 -51,-10 -93,9c-76,34 -79,54 -24,166c47,93 163,236 192,236c9,0 18,-22 26,-59zm5192,-124c83,-42 187,-117 187,-136c0,-4 -21,-13 -47,-20c-72,-19 -109,-52 -134,-121c-15,-43 -27,-60 -39,-60c-23,0 -100,85 -162,179c-56,86 -64,138 -26,186c19,25 26,27 75,23c37,-3 81,-19 146,-51zm-3596,-126c16,-57 27,-182 19,-216l-7,-27l-29,40c-16,22 -44,52 -63,66c-42,32 -59,71 -55,122c4,45 33,66 88,62c31,-3 35,-7 47,-47zm110,17c18,-28 12,-58 -11,-58c-21,0 -39,37 -31,67c7,29 21,27 42,-9zm-2041,-67c14,-78 47,-111 127,-126c20,-4 40,-11 43,-16c10,-16 -33,-73 -83,-110c-166,-124 -220,-141 -286,-88c-18,13 -27,30 -27,48c0,71 90,261 154,325c37,37 40,38 52,21c8,-10 17,-35 20,-54zm2777,2c37,-8 67,-19 67,-24c0,-11 0,-11 -101,-33c-42,-10 -112,-35 -155,-57c-43,-21 -84,-39 -90,-39c-16,0 -84,90 -84,111c0,62 181,83 363,42zm2967,-86c31,-13 81,-40 111,-60c63,-42 159,-133 159,-152c0,-6 -25,-18 -56,-25c-70,-17 -97,-38 -136,-106c-16,-30 -33,-54 -38,-54c-15,0 -78,78 -121,151c-39,65 -44,82 -47,144c-3,60 -1,74 18,98c26,33 39,33 110,4zm-2695,-82c39,-14 99,-37 135,-49c142,-50 206,-95 283,-201c29,-38 83,-108 121,-155c92,-113 99,-131 94,-251c-3,-94 -4,-98 -43,-155c-57,-83 -146,-175 -226,-235c-78,-57 -91,-75 -82,-110c17,-68 58,-92 118,-69c23,9 25,14 19,45c-6,33 -4,35 19,35c50,0 41,-66 -15,-116c-37,-35 -79,-51 -148,-58c-108,-11 -138,-36 -262,-221c-114,-170 -281,-445 -292,-482c-5,-16 0,-32 18,-56c41,-54 36,-65 -58,-142c-71,-57 -129,-91 -294,-170c-98,-47 -125,-56 -132,-45c-13,20 -50,229 -57,319c-6,76 -5,80 20,105c20,20 36,26 70,26c29,0 49,6 60,18c8,9 55,100 102,202c48,102 92,190 98,196c7,6 101,39 211,73c193,60 273,92 288,115c15,21 8,55 -11,61c-12,3 -71,-14 -148,-44c-266,-102 -335,-114 -503,-86c-179,30 -244,64 -341,178c-120,143 -171,289 -149,427c12,72 11,75 -10,92c-13,10 -39,18 -61,18c-26,0 -47,8 -66,24c-25,22 -28,31 -31,105c-2,45 1,103 7,129c21,85 73,203 106,238l32,34l111,0c86,0 131,-6 208,-26c154,-40 202,-24 312,104c30,34 58,62 63,62c12,0 11,-72 -1,-105c-6,-17 -25,-32 -55,-45c-61,-26 -60,-51 4,-120c48,-51 51,-53 73,-38c33,22 70,166 72,281l1,87l40,15c63,23 76,24 155,20c50,-2 99,-12 145,-30zm-3345,-170c36,-76 68,-101 138,-111l51,-6l-19,-38c-11,-21 -59,-74 -107,-119l-88,-81l-72,0c-63,0 -74,3 -87,22c-24,35 -19,72 24,180c62,153 98,218 121,218c4,0 22,-29 39,-65zm6380,-122c60,-35 200,-175 200,-200c0,-17 -11,-21 -76,-31c-85,-12 -108,-26 -136,-89c-10,-24 -23,-43 -27,-43c-20,0 -86,88 -119,159c-30,62 -36,86 -35,134c2,96 45,138 113,110c19,-8 55,-26 80,-40zm-6650,-234c34,-57 77,-85 145,-94c30,-3 55,-11 55,-17c0,-63 -89,-182 -179,-240c-58,-36 -130,-39 -162,-7c-20,20 -21,29 -16,103c9,107 33,184 85,269c13,21 28,37 35,34c6,-2 23,-23 37,-48zm5280,-90c35,-6 103,-25 150,-43c138,-54 197,-97 248,-181c33,-55 36,-66 35,-130c0,-38 -8,-92 -17,-120c-20,-63 -20,-184 -1,-259c9,-32 13,-66 10,-75c-2,-9 -32,-45 -66,-81c-95,-101 -112,-147 -119,-312l-5,-138l-47,-42c-46,-43 -64,-87 -56,-134c4,-22 -25,-29 -78,-19c-24,4 -42,18 -65,50c-39,54 -81,75 -214,111c-78,20 -108,34 -137,60c-20,18 -50,40 -67,48c-39,21 -133,21 -173,0c-39,-20 -87,-12 -129,24c-36,30 -121,198 -138,272c-15,66 -14,227 2,237c6,4 42,10 78,14c69,6 129,36 129,65c0,11 -21,14 -105,14c-120,0 -157,11 -198,59c-58,69 -41,151 31,151c38,0 79,-20 144,-71c39,-31 92,-47 102,-31c9,15 -10,58 -45,102l-32,39l17,44c36,96 133,216 215,269c42,26 51,28 152,28c124,0 139,4 139,35c0,17 7,25 23,28c30,5 137,-2 217,-14zm1597,-32c70,-52 148,-138 185,-205l28,-49l-78,-5c-45,-3 -91,-12 -110,-22c-28,-15 -64,-58 -75,-91c-14,-39 -112,146 -122,229c-9,73 2,134 31,163c35,35 73,30 141,-20zm-7111,-257c36,-54 87,-84 154,-90c43,-4 56,-9 58,-23c5,-26 -49,-133 -93,-185c-33,-38 -41,-42 -69,-37c-21,4 -51,-1 -86,-14c-52,-20 -56,-20 -68,-4c-19,26 -11,212 12,278c17,48 53,115 62,115c2,0 16,-18 30,-40zm7310,-132c86,-81 194,-236 194,-278c0,-6 -33,-9 -87,-8c-102,2 -123,-7 -159,-63c-28,-45 -36,-43 -63,9c-44,87 -67,220 -50,287c32,120 79,135 165,53zm-2811,-183c11,-22 30,-55 41,-73c23,-36 39,-134 29,-175c-8,-31 -24,-36 -160,-43c-114,-6 -192,-24 -235,-54c-86,-60 -265,-131 -291,-115c-12,8 -12,55 0,55c5,0 21,19 34,43c14,23 57,72 95,110c69,66 70,67 124,67c70,0 141,24 198,67c49,37 90,96 90,129c0,51 47,44 75,-11zm-4484,-137c9,-164 -47,-347 -127,-417c-48,-42 -118,-67 -150,-52c-69,31 -83,235 -27,389c9,23 17,42 18,42c1,0 24,-9 50,-21c63,-28 98,-20 164,36c60,51 71,54 72,23zm7444,-80c25,-22 62,-64 82,-91c39,-53 106,-205 97,-219c-5,-8 -35,-6 -121,7c-40,6 -91,-15 -122,-50c-17,-19 -35,-35 -40,-35c-11,0 -46,89 -61,153c-21,92 -5,173 47,245c33,44 63,42 118,-10zm-4560,-198c85,-56 210,-110 255,-110c30,0 41,-22 30,-62c-15,-53 -44,-84 -98,-104c-76,-28 -107,-56 -122,-111c-7,-26 -16,-52 -21,-57c-13,-14 -58,26 -103,94c-76,115 -116,237 -116,353l0,70l41,-6c27,-3 72,-26 134,-67zm1619,45c22,-8 44,-22 50,-32c17,-28 56,-146 51,-151c-2,-3 -55,0 -117,6c-127,13 -220,6 -363,-28c-100,-24 -136,-45 -155,-90c-19,-46 -7,-72 47,-100c46,-24 102,-89 103,-120c0,-17 -21,-30 -181,-111c-127,-64 -277,-112 -333,-107l-36,3l55,68c64,80 75,118 50,183l-17,45l33,80c44,105 83,151 149,172c29,9 60,17 70,17c45,0 146,42 216,90c42,28 99,60 128,70c62,23 194,25 250,5zm-2111,-61c10,-16 46,-78 79,-139c70,-129 186,-305 262,-397c30,-36 96,-102 147,-148c52,-46 99,-95 106,-109c18,-39 16,-71 -4,-71c-53,0 -262,161 -349,267c-68,85 -304,551 -304,602c0,19 16,31 35,27c6,-1 18,-16 28,-32zm5136,-174c29,-15 99,-114 136,-192c33,-69 62,-174 51,-185c-3,-3 -32,2 -64,11c-94,26 -151,19 -200,-27c-28,-26 -37,-18 -56,58c-32,122 -15,228 50,304c36,42 52,48 83,31zm-7904,-30c53,-56 141,-73 233,-45c20,7 22,4 22,-33c0,-101 -70,-248 -143,-300c-55,-40 -93,-44 -118,-13c-23,28 -59,188 -59,261c0,64 17,160 29,160c4,0 20,-13 36,-30zm4675,-4c0,-34 -81,-61 -131,-45c-56,19 -54,26 12,42c83,20 119,21 119,3zm353,-6c122,-46 367,-248 367,-304c0,-25 -110,44 -194,121c-69,64 -121,98 -190,126c-51,20 -96,53 -96,69c0,15 58,8 113,-12zm-3366,-15c66,-20 175,-100 223,-164c71,-94 91,-221 44,-283c-78,-104 -186,-87 -299,48c-75,88 -113,112 -188,113c-54,1 -75,15 -87,59c-15,56 -13,144 6,170c42,61 192,89 301,57zm3277,-94c75,-36 139,-79 240,-159c76,-61 154,-118 174,-128c29,-14 62,-16 173,-15c90,1 139,-2 144,-9c11,-18 47,0 97,47c25,25 51,42 57,39c22,-14 10,-44 -39,-100c-27,-31 -50,-61 -50,-66c0,-4 12,-17 27,-28c16,-11 25,-23 21,-27c-4,-4 -56,-13 -117,-20c-114,-13 -171,-35 -215,-84c-40,-44 -98,-18 -201,88l-50,52l-6,-28l-6,-28l-13,30c-7,17 -35,76 -61,132c-49,101 -49,102 -184,219c-74,65 -135,122 -135,126c0,19 49,5 144,-41zm520,-23c77,-78 138,-157 134,-175c-2,-12 -14,-19 -35,-21c-28,-3 -39,6 -111,88c-44,49 -85,104 -91,120c-10,30 -9,30 25,30c28,0 44,-9 78,-42zm-719,-58c0,-14 -60,-38 -71,-27c-3,3 0,15 6,27c13,25 65,25 65,0zm1431,-16l25,-17l-22,-23c-28,-30 -35,-30 -55,1c-13,20 -14,28 -4,40c16,19 25,19 56,-1zm-446,-24c12,-7 11,-13 -10,-34c-13,-15 -27,-26 -31,-26c-6,0 -29,53 -29,66c0,8 56,3 70,-6zm384,-183c3,-18 7,-59 10,-92c3,-33 17,-92 31,-130c40,-105 75,-258 85,-375c13,-140 33,-211 82,-295c46,-78 147,-218 246,-340c97,-120 123,-183 133,-319c4,-65 16,-137 28,-174c30,-91 28,-134 -9,-176c-17,-19 -43,-39 -58,-44c-25,-9 -34,-4 -102,58l-75,68l0,81c0,79 0,80 -38,118c-58,60 -154,105 -236,111c-81,5 -132,-9 -180,-51l-35,-30l-57,61c-70,75 -120,175 -159,321c-50,190 -107,374 -145,471c-48,123 -51,142 -31,194c23,61 65,97 118,103c36,4 55,-1 118,-34c45,-23 79,-48 87,-63c6,-14 25,-54 41,-90c16,-36 47,-85 69,-110c78,-87 123,-163 149,-246c26,-88 42,-104 69,-73c39,42 -2,171 -89,279c-104,129 -144,214 -170,364c-16,94 -41,144 -87,177c-38,27 -37,40 7,64c75,40 124,120 124,201c0,42 8,47 41,23c18,-12 30,-32 33,-52zm-4606,-3c15,-9 47,-42 71,-75c81,-111 118,-127 321,-139c192,-12 288,-37 444,-116c122,-63 209,-126 303,-220c82,-84 98,-106 150,-211c55,-112 60,-118 91,-121c36,-4 35,-5 32,84c-3,110 42,165 123,150c48,-9 68,-36 81,-108c13,-71 -7,-60 163,-91c45,-8 125,-34 179,-57l97,-42l55,21c155,60 225,-20 176,-198c-20,-72 -13,-116 26,-166c37,-46 38,-84 6,-146c-34,-64 -40,-108 -26,-199c10,-64 10,-86 0,-110c-22,-54 -48,-60 -260,-60c-224,0 -242,-5 -296,-80c-44,-62 -59,-70 -124,-70c-62,0 -120,-24 -255,-104c-236,-140 -307,-156 -505,-111c-84,19 -149,16 -225,-10c-88,-31 -302,-2 -415,55c-51,26 -304,234 -413,339c-64,62 -98,116 -169,273c-192,425 -218,512 -218,730c0,66 8,167 17,225c16,101 16,105 -3,141c-10,19 -36,56 -57,81c-45,55 -58,97 -47,147c15,65 36,77 133,75c99,-1 201,25 342,88c99,44 159,52 203,25zm3504,4c8,-7 18,-23 21,-36c6,-26 8,-26 -158,-41c-144,-13 -240,-38 -343,-90c-218,-110 -348,-134 -715,-133c-148,1 -277,4 -288,7c-25,8 -24,31 1,45c15,8 55,7 143,-1c105,-11 135,-10 217,4c173,29 480,115 660,185c154,60 419,94 462,60zm3007,-23c43,-49 69,-104 92,-192c18,-71 26,-163 14,-163c-3,0 -33,9 -67,21c-69,23 -119,20 -182,-12c-45,-24 -52,-19 -62,49c-15,102 18,233 75,293c50,52 87,53 130,4zm-8067,-21c54,-34 105,-41 167,-20c27,9 55,16 60,16c18,0 13,-123 -8,-189c-39,-125 -103,-196 -173,-189c-30,3 -36,10 -66,70c-37,76 -62,177 -62,255c0,91 13,100 82,57zm5332,-244c42,-53 51,-70 38,-70c-19,0 -72,51 -91,87c-11,21 -15,53 -7,53c2,0 29,-31 60,-70zm509,21c28,-11 67,-49 67,-66c0,-7 -31,-11 -92,-10c-70,0 -101,-4 -125,-17c-36,-20 -95,-74 -109,-101c-7,-11 -16,-15 -27,-11c-29,11 -30,43 -2,99c27,56 64,91 113,105c38,12 146,12 175,1zm-2324,-145l22,-24l-27,-21c-43,-34 -84,-22 -84,24c0,48 52,60 89,21zm4560,-34c36,-35 77,-160 93,-280c15,-118 8,-128 -61,-89c-70,39 -126,44 -186,18c-26,-12 -51,-19 -54,-15c-3,3 -6,38 -5,77c2,122 59,256 127,297c42,26 53,25 86,-8zm-8107,-44c59,-31 142,-31 185,0c17,12 33,22 36,22c11,0 27,-66 27,-109c0,-55 -24,-160 -45,-201c-32,-62 -100,-105 -142,-89c-49,18 -132,242 -133,357c0,50 10,52 72,20zm5505,-62c67,-69 137,-171 171,-249c12,-26 31,-94 43,-150c12,-56 28,-119 35,-141c8,-21 14,-58 14,-82c0,-40 -6,-50 -55,-104c-30,-33 -55,-64 -55,-69c0,-15 23,-29 85,-51c33,-13 64,-26 68,-30c4,-4 -47,-10 -115,-13c-68,-4 -140,-9 -160,-13c-36,-6 -38,-5 -38,21c0,16 14,57 31,92c61,126 51,246 -36,407c-60,111 -96,239 -96,343c-1,45 2,87 6,93c14,22 42,7 102,-54zm-1975,-177c11,-6 18,-18 16,-27c-3,-13 -13,-17 -43,-15c-53,2 -148,34 -153,52c-4,12 9,13 78,7c45,-4 91,-11 102,-17zm1223,-204c5,-53 5,-58 -8,-42c-17,21 -31,102 -21,118c11,18 21,-9 29,-76zm3340,45c18,-20 55,-138 55,-176c0,-30 -51,-97 -95,-124c-21,-13 -75,-31 -121,-40l-84,-16l0,55c0,87 45,226 88,275c41,45 126,60 157,26zm-7834,-27c5,-14 12,-67 16,-117c8,-119 -12,-194 -67,-248c-72,-72 -122,-44 -197,110c-41,85 -63,160 -63,216c0,32 3,37 18,31c118,-50 192,-46 246,14c25,28 34,26 47,-6zm5156,-59c29,-18 68,-72 82,-113c15,-47 14,-127 -4,-159c-30,-56 -28,-56 -86,-25c-72,37 -171,39 -239,4c-57,-29 -106,-76 -130,-121c-24,-48 -41,-144 -34,-191c8,-45 0,-48 -47,-16c-87,59 -131,169 -110,276c37,183 168,313 361,356c73,16 173,11 207,-11zm-5652,-121c60,-65 236,-244 392,-398c339,-337 548,-564 532,-579c-2,-2 -78,-9 -169,-15c-466,-33 -500,-40 -658,-133l-104,-61l-26,33c-15,19 -34,44 -42,56c-8,13 -60,85 -116,161c-236,322 -433,638 -411,659c10,11 121,-22 186,-55c31,-16 115,-65 187,-108c71,-44 159,-97 197,-117l67,-38l0,40c0,22 -32,145 -71,273c-96,314 -115,399 -86,399c6,0 61,-53 122,-117zm8589,-4c0,-25 -27,-127 -62,-234c-92,-288 -104,-329 -100,-373l3,-41l120,75c66,41 173,102 239,135c115,59 254,114 264,104c9,-9 -31,-87 -113,-220c-125,-203 -458,-665 -480,-665c-6,0 -35,16 -64,36c-124,84 -233,116 -456,135c-71,6 -191,16 -265,23c-108,9 -135,14 -138,27c-1,8 39,60 89,115c138,149 942,933 954,930c6,-2 10,-23 9,-47zm-3022,-209c81,-23 106,-118 48,-183c-32,-37 -39,-71 -16,-80c17,-7 35,-3 140,29c142,44 303,41 396,-6c45,-23 54,-49 29,-89c-23,-38 -61,-63 -107,-70c-55,-9 -55,-41 0,-78c31,-21 44,-37 46,-57c3,-26 1,-28 -20,-21c-13,4 -34,8 -48,9c-36,2 -39,-42 -6,-82c64,-75 -3,-230 -125,-293c-49,-25 -82,-24 -137,2c-61,30 -102,89 -102,147c0,41 4,48 58,101c33,31 65,67 72,80c11,21 10,26 -6,38c-11,8 -27,12 -37,9c-60,-15 -64,42 -6,95c45,42 47,69 5,69c-73,0 -106,-48 -117,-174c-5,-49 -16,-112 -25,-139c-36,-109 -8,-184 104,-272c28,-22 51,-47 51,-55c1,-38 -82,-100 -136,-100c-64,0 -94,83 -53,145c25,37 25,42 0,55c-15,8 -44,7 -110,-5c-115,-19 -146,-19 -197,4c-51,24 -94,84 -100,144c-7,63 45,169 135,277c39,47 72,92 72,101c0,9 -11,47 -25,83c-14,37 -25,84 -25,104c0,115 86,217 185,221c11,1 37,-4 57,-9zm-5002,-74c24,-53 36,-141 21,-150c-12,-8 -116,77 -125,101c-7,18 62,105 76,97c6,-4 18,-25 28,-48zm6048,-216c96,-43 132,-110 77,-146c-20,-13 -40,-16 -88,-12c-131,11 -239,108 -179,160c36,33 113,32 190,-2zm-1543,-28c58,-32 165,-107 165,-115c0,-4 -23,-44 -51,-88c-59,-94 -74,-134 -84,-213c-5,-36 -12,-56 -19,-53c-6,3 -81,34 -166,69c-85,36 -176,73 -202,83c-57,21 -61,41 -24,120c66,144 280,254 381,197zm1290,-92c54,-56 135,-98 264,-136c11,-4 10,-8 -4,-24c-10,-11 -24,-20 -32,-20c-7,0 -69,15 -136,34c-67,19 -148,38 -179,41l-57,6l52,65c28,35 54,64 57,64c4,0 19,-14 35,-30zm-2255,-180c397,-26 736,-138 1024,-338c43,-30 128,-79 188,-108c60,-30 139,-77 174,-104c36,-28 69,-50 74,-50c23,0 178,-131 246,-208c127,-144 201,-265 257,-417c50,-139 172,-606 164,-629c-3,-8 -83,-28 -224,-55c-283,-55 -266,-52 -280,-43c-7,4 -26,48 -44,97c-63,180 -221,468 -346,632c-109,144 -266,263 -450,341c-184,78 -498,194 -588,217c-145,37 -432,65 -666,65c-211,0 -370,-64 -694,-281c-359,-241 -537,-449 -710,-829c-45,-101 -55,-115 -78,-118c-15,-2 -84,13 -154,33c-167,47 -213,64 -214,78c0,7 -1,53 -2,102c-2,78 -6,99 -29,144c-16,29 -28,61 -28,71c0,58 199,396 323,550c94,116 301,317 416,404c97,72 107,78 140,72c192,-35 253,-33 393,14c51,17 140,57 198,89c165,92 184,100 262,112c91,14 117,27 164,84c40,49 62,64 109,76c44,10 209,10 375,-1zm2695,-32c57,-68 99,-161 103,-234c6,-94 -2,-122 -63,-202c-54,-72 -55,-75 -55,-140c0,-83 -18,-115 -92,-167c-64,-45 -89,-81 -112,-157c-19,-66 -43,-85 -121,-98c-73,-12 -105,-30 -163,-95c-37,-43 -58,-57 -85,-62c-32,-5 -40,-1 -66,26c-34,36 -67,145 -57,188c21,85 25,78 -54,109c-87,34 -133,81 -191,199l-41,82l12,61c23,117 52,120 100,12c40,-90 79,-133 157,-172c107,-52 248,-50 228,4c-8,20 -25,27 -94,39c-87,14 -158,54 -192,107c-36,57 -53,107 -45,136c3,12 32,43 64,68l58,45l69,-64c142,-129 366,-199 353,-110c-2,18 -16,25 -84,43c-101,25 -157,58 -222,129c-57,62 -69,100 -53,163c23,82 92,131 170,118c56,-9 266,-75 340,-107c65,-27 66,-28 86,-9c17,18 18,24 7,65c-21,81 -11,86 43,23zm-5979,-249c8,-13 -18,-35 -74,-65c-21,-10 -78,-42 -129,-71c-111,-64 -136,-66 -186,-18c-30,29 -37,43 -37,74c0,46 16,69 55,80c46,14 362,13 371,0zm7145,-40c86,-19 111,-67 69,-136c-25,-41 -54,-56 -94,-49c-31,6 -210,100 -291,154c-40,26 -40,26 -15,33c40,11 275,10 331,-2zm-7669,-37c13,-48 64,-131 111,-180c50,-51 117,-94 292,-189c228,-124 250,-136 260,-143c6,-4 30,-18 55,-32c25,-14 79,-44 122,-67c99,-54 110,-67 79,-92c-13,-11 -49,-26 -80,-35c-54,-16 -62,-16 -236,10c-202,30 -383,65 -528,101c-113,29 -157,31 -197,10c-17,-9 -89,-95 -175,-210c-80,-107 -151,-195 -158,-195c-13,0 -378,314 -415,358c-13,15 -40,60 -59,101c-41,87 -45,80 78,150c46,26 152,87 234,136c168,98 516,287 561,303c39,14 47,11 56,-26zm8148,-147c332,-176 640,-365 654,-401c11,-28 -53,-142 -112,-202c-78,-78 -368,-332 -378,-331c-5,0 -67,80 -139,177c-71,97 -147,196 -169,219c-37,42 -40,43 -100,43c-38,0 -101,-11 -166,-30c-58,-17 -154,-37 -215,-45c-60,-9 -173,-25 -249,-36c-179,-27 -286,-24 -339,10c-37,23 -38,24 -20,41c10,10 68,43 128,75c122,64 322,171 520,279c183,99 258,174 301,300l16,47l42,-24c22,-14 124,-69 226,-122zm-7542,70c19,-58 12,-167 -14,-201c-28,-38 -47,-48 -76,-41c-29,8 -158,123 -158,142c0,17 200,146 220,142c8,-1 21,-20 28,-42zm242,-70c14,-17 5,-85 -16,-112c-13,-17 -15,-17 -34,6c-26,30 -25,69 2,98c25,27 31,28 48,8zm6541,-16c23,-12 16,-29 -11,-29c-21,0 -34,15 -25,30c8,13 12,12 36,-1zm-6257,-139c71,-63 179,-157 240,-208c142,-119 166,-141 166,-155c-1,-7 -31,-64 -69,-127c-44,-74 -74,-115 -84,-114c-9,1 -65,30 -125,65c-103,60 -113,68 -147,127c-23,38 -67,89 -112,130c-41,37 -86,86 -100,110c-35,59 -31,77 53,281c17,40 0,50 178,-109zm-398,18c31,-38 100,-176 91,-185c-17,-16 -177,71 -177,97c0,19 43,120 52,120c3,0 19,-15 34,-32zm6718,3c8,-13 -70,-64 -166,-109c-80,-37 -88,-39 -88,-21c0,31 82,103 137,122c53,17 109,22 117,8zm-4026,-507c3,-531 10,-491 -96,-517c-54,-13 -65,-13 -77,-1c-28,28 -79,187 -152,474c-107,416 -104,402 -84,422c17,18 335,89 381,85l25,-2l3,-461zm-3315,91c64,-15 409,-81 577,-111c52,-9 102,-19 110,-21c29,-9 -196,-203 -236,-203c-49,0 -282,136 -456,268c-116,87 -115,96 5,67zm-93,-120c160,-118 225,-157 435,-260c576,-284 1093,-459 1726,-584c528,-105 891,-143 1510,-161c748,-22 1436,30 2044,154c429,87 704,166 1092,312c430,161 668,276 924,446c101,66 191,123 200,125c19,5 75,-69 483,-646c17,-24 95,-131 174,-239c78,-107 142,-201 142,-208c0,-8 -33,-48 -72,-90c-322,-339 -1050,-753 -1773,-1008l-97,-34l-14,33c-26,64 -23,69 94,130c272,144 397,253 378,330c-9,34 -33,32 -41,-4c-13,-60 -72,-111 -194,-169c-181,-85 -282,-125 -293,-114c-12,12 -82,257 -107,375c-10,51 -22,144 -26,207c-9,149 -34,191 -87,143c-16,-14 -18,-33 -19,-142c0,-127 -17,-209 -45,-218c-7,-2 -18,25 -29,69c-27,115 -35,137 -56,149c-15,8 -24,7 -35,-2c-12,-10 -14,-28 -8,-99c8,-104 7,-105 -112,-162c-109,-52 -126,-48 -74,17c52,65 70,104 70,151c0,54 -31,84 -87,84c-58,0 -109,-46 -160,-145c-21,-41 -41,-75 -45,-75c-4,0 -12,18 -18,40c-17,63 -57,101 -113,107c-89,10 -175,-15 -271,-81c-22,-14 -51,-29 -65,-32c-93,-21 -101,-25 -131,-70c-72,-104 -97,-199 -70,-265c13,-30 55,-59 86,-59c40,0 98,26 140,63l45,40l84,-24l84,-23l37,-106c64,-183 95,-230 150,-230c23,0 38,7 48,22c24,34 20,51 -24,92c-22,20 -47,47 -55,60c-20,30 -65,163 -65,191c0,12 22,47 49,78c27,31 56,66 65,79l16,22l39,-43c40,-43 41,-43 99,-39c58,4 140,38 254,105l47,28l33,-32c47,-46 84,-51 131,-19c21,15 42,24 46,21c5,-2 26,-73 46,-156c36,-144 37,-153 20,-165c-21,-16 -150,-46 -307,-73c-137,-23 -155,-31 -166,-74c-11,-39 2,-68 52,-116c20,-19 36,-38 36,-42c0,-23 -375,-99 -637,-128c-789,-89 -892,-94 -1828,-81c-798,11 -891,16 -1435,86c-382,48 -517,79 -1168,260c-344,96 -559,178 -847,322c-568,284 -992,571 -1187,805c-38,46 -47,64 -42,80c4,12 55,85 113,162c59,77 136,181 172,230c35,50 129,176 209,281c80,105 180,239 223,298c89,123 70,121 207,21zm7785,65c-10,-11 -68,-50 -129,-87c-61,-37 -169,-102 -240,-145c-174,-105 -173,-105 -306,18c-25,23 -58,53 -75,67c-16,14 -28,28 -24,31c7,7 249,49 464,81c94,14 195,31 225,39c30,8 66,14 79,15c23,1 24,0 6,-19zm-6699,-96c20,-61 21,-71 8,-113c-17,-57 -47,-84 -84,-76c-15,3 -58,22 -94,41l-67,36l23,28c13,16 52,65 88,109c64,78 65,80 84,61c10,-10 29,-49 42,-86zm3866,-66c16,-13 95,-129 134,-196c26,-45 17,-56 -107,-124c-74,-41 -114,-58 -141,-58c-29,0 -41,-6 -57,-29c-30,-41 -510,-311 -554,-311c-30,0 -51,23 -43,47c14,43 261,280 451,433c105,84 273,228 280,240c8,13 18,13 37,-2zm-3722,-38c25,-13 99,-110 139,-181c25,-45 31,-67 31,-116c0,-84 -12,-92 -96,-70c-91,23 -203,72 -275,118c-68,45 -68,60 1,79c65,18 103,50 135,118c31,65 35,68 65,52zm5655,-24c41,-17 55,-42 55,-95c0,-88 -71,-163 -187,-197l-53,-15l-32,31c-18,17 -57,37 -85,46c-34,10 -53,21 -53,31c0,18 94,111 156,154c46,31 111,57 147,58c10,1 33,-5 52,-13zm-5992,-84c14,-15 17,-29 12,-56c-4,-20 -11,-38 -15,-41c-6,-4 -167,69 -179,81c-7,7 30,42 62,57c28,14 34,14 66,-3c20,-10 44,-27 54,-38zm2787,-17c52,-13 145,-35 206,-49c138,-31 238,-65 323,-112c98,-53 100,-56 67,-99c-15,-19 -62,-72 -105,-117l-77,-81l-107,76c-166,120 -255,158 -403,173c-34,4 -67,9 -72,13c-12,7 -18,202 -7,220c8,13 39,9 175,-24zm-568,-150l39,-130l-44,-40c-66,-61 -167,-125 -197,-125c-42,0 -360,208 -360,236c0,26 85,84 169,114c99,37 282,80 325,77c29,-2 31,-5 68,-132zm-784,-8c103,-74 217,-156 253,-183c36,-27 111,-80 167,-119c56,-38 102,-76 102,-84c0,-11 -25,-13 -137,-8c-150,5 -226,22 -348,77c-85,38 -345,198 -352,216c-5,12 112,234 123,234c3,0 89,-60 192,-133zm2100,103c23,-10 42,-23 42,-28c0,-9 -66,-72 -75,-72c-2,0 -20,7 -39,16c-41,20 -60,55 -43,77c25,31 58,33 115,7zm2138,-145c20,-8 33,-19 30,-24c-12,-19 -324,-131 -363,-131c-13,0 -13,4 2,28c24,37 50,57 120,94c99,51 149,59 211,33zm-2918,-95c88,-25 223,-90 323,-156c74,-49 179,-144 179,-163c0,-29 -314,-26 -825,8c-165,11 -312,21 -327,21c-42,0 -36,35 15,84c49,49 265,179 340,207c72,25 200,25 295,-1zm1178,-85c10,-8 14,-15 8,-15c-5,0 -19,7 -30,15c-10,8 -14,15 -8,15c5,0 19,-7 30,-15zm-45,-96c75,-45 128,-95 113,-108c-10,-10 -314,-31 -450,-31c-61,0 -85,3 -82,12c2,6 71,49 153,94c169,94 163,93 266,33zm1302,-812c-20,-34 -43,-47 -43,-24c0,21 40,68 51,61c6,-3 2,-18 -8,-37zm-301,-44c33,-29 15,-116 -33,-159c-25,-23 -30,-16 -61,78c-18,55 -19,69 -9,82c18,21 80,20 103,-1zm-173,-121c31,-106 31,-122 -3,-122c-22,0 -66,43 -66,64c0,3 -10,26 -21,51c-23,50 -17,71 24,77c38,6 45,-2 66,-70zm-179,-53c21,-38 -8,-101 -59,-128c-54,-29 -67,18 -26,99c20,40 31,50 50,50c14,0 29,-8 35,-21zm1236,-394c24,-58 20,-62 -68,-91c-66,-22 -102,-28 -179,-28c-88,-1 -99,1 -137,27c-47,31 -52,45 -19,51c12,3 99,20 192,39c94,19 176,35 183,36c7,1 20,-15 28,-34z" fill="#1a8a7d" id="svg_2"/>
   <path d="m5471,-1891c-13,-5 -51,-26 -83,-45c-63,-38 -83,-74 -56,-100c13,-13 22,-10 74,21c63,38 97,51 113,41c5,-4 15,-32 21,-64c17,-83 20,-92 35,-92c25,0 56,35 64,72c17,72 -58,179 -124,177c-11,0 -31,-5 -44,-10z" fill="#1a8a7d" id="svg_3"/>
   <path d="m5726,-2071c-35,-42 -58,-87 -51,-100c4,-6 28,2 61,21c30,16 54,28 54,25c0,-2 -14,-25 -32,-50c-23,-32 -29,-48 -21,-56c8,-8 17,-8 30,-1c29,16 103,100 103,117c0,20 -28,31 -43,16c-18,-18 -24,-13 -31,24c-9,45 -35,46 -70,4z" fill="#1a8a7d" id="svg_4"/>
   <path d="m5407,-2097c-4,-3 -7,-18 -7,-32c0,-30 -27,-74 -40,-66c-17,10 -89,-15 -100,-35c-33,-63 7,-117 81,-107c79,11 122,64 123,153c1,38 -4,58 -18,73c-20,22 -28,25 -39,14z" fill="#1a8a7d" id="svg_5"/>
   <path d="m4750,-2140c-41,-4 -88,-12 -103,-18c-60,-25 -86,-162 -51,-265c18,-54 73,-114 140,-153c41,-24 61,-29 140,-32l93,-4l23,-65c39,-113 123,-187 250,-219c121,-32 292,16 387,109c64,62 81,98 81,172c0,46 3,55 18,55c30,0 63,-30 82,-76c31,-71 80,-53 80,28c0,79 -59,128 -154,128c-71,0 -203,-20 -333,-49c-96,-22 -151,-26 -168,-13c-6,4 -26,26 -44,50c-40,52 -96,82 -151,82l-40,0l6,-53l6,-54l-47,-6c-68,-10 -140,-9 -169,3c-40,15 -107,81 -127,125c-23,50 -25,142 -4,172c24,34 79,44 153,29c56,-12 65,-12 79,2c14,15 13,18 -11,39c-15,13 -35,22 -44,21c-9,0 -51,-4 -92,-8zm418,-485c41,-68 83,-101 148,-116c41,-9 65,-7 144,9c52,11 99,16 103,12c14,-13 -50,-77 -95,-95c-47,-19 -188,-22 -232,-5c-81,30 -167,124 -182,196c-5,25 -2,32 18,41c46,23 62,16 96,-42zm432,40c0,-8 -11,-21 -24,-30c-47,-31 -246,-60 -246,-35c0,15 78,51 144,65c85,19 126,19 126,0z" fill="#1a8a7d" id="svg_6"/>
   <path d="m5125,-2960c-10,-33 25,-81 80,-110c66,-33 180,-36 239,-4c47,24 81,66 73,88c-5,13 -15,12 -72,-9c-104,-40 -181,-31 -261,30c-40,30 -51,31 -59,5z" fill="#1a8a7d" id="svg_7"/>
   <path d="m6731,-2566c-13,-17 -21,-41 -21,-66c0,-29 -7,-45 -25,-62c-75,-69 45,-101 129,-35c32,25 59,86 52,115c-18,72 -95,99 -135,48z" fill="#1a8a7d" id="svg_8"/>
   <path d="m7381,-2614c-9,-11 -7,-22 10,-51c22,-36 22,-37 5,-136c-15,-90 -15,-102 -1,-129c22,-42 60,-40 111,5l39,35l-33,29l-34,29l7,79c6,63 4,86 -8,110c-23,43 -72,58 -96,29z" fill="#1a8a7d" id="svg_9"/>
   <path d="m7192,-2742c-7,-7 -12,-36 -12,-64c0,-51 -1,-53 -35,-65c-19,-7 -35,-15 -35,-19c1,-27 70,-65 104,-56c35,9 91,59 106,95c15,36 -1,96 -30,111c-26,14 -83,13 -98,-2z" fill="#1a8a7d" id="svg_10"/>
   <path d="m7201,-3043c-19,-6 -51,-27 -71,-46c-61,-58 -76,-149 -40,-251c19,-57 18,-75 -7,-66c-8,3 -33,-3 -56,-13c-73,-33 -129,-44 -222,-45c-121,0 -183,28 -276,125c-37,38 -74,69 -83,69c-49,0 -17,-87 56,-156c95,-89 261,-143 393,-128c124,14 225,72 225,129l0,27l31,-26c37,-31 74,-34 89,-5c10,18 5,27 -44,74c-34,32 -56,62 -56,75c0,45 23,109 52,144c28,34 33,36 88,36c90,0 112,17 72,53c-21,20 -97,21 -151,4z" fill="#1a8a7d" id="svg_11"/>
   <path d="m6965,-3596c-38,-8 -88,-18 -110,-22c-45,-8 -56,-33 -31,-67c14,-19 15,-19 89,-1c99,23 161,54 165,84c4,26 -8,27 -113,6z" fill="#1a8a7d" id="svg_12"/>
   <path d="m2445,-4924c-47,-20 -95,-81 -95,-120c0,-36 28,-79 63,-98c12,-7 56,-14 97,-17l75,-6l-3,-32c-2,-33 -2,-33 45,-33c48,0 123,-28 155,-57c17,-15 16,-17 -15,-32c-62,-31 -97,-119 -62,-155c9,-8 32,-20 53,-26c71,-19 84,-15 148,58c75,84 73,80 95,166c29,112 26,137 -22,180c-22,21 -47,36 -56,34c-25,-5 -54,-51 -60,-97c-3,-23 -10,-44 -15,-47c-5,-3 -28,6 -52,20c-41,24 -54,44 -72,106c-9,36 -21,48 -55,55c-21,5 -35,18 -48,44c-32,61 -109,86 -176,57zm65,-91c16,-19 -3,-45 -32,-45c-24,0 -34,26 -18,45c16,19 34,19 50,0z" fill="#1a8a7d" id="svg_13"/>
   <path d="m1320,-5776c0,-3 31,-45 68,-93c38,-47 88,-114 113,-148c24,-34 50,-63 57,-63c6,0 12,3 12,6c0,3 -52,73 -116,155c-103,131 -134,165 -134,143z" fill="#1a8a7d" id="svg_14"/>
   <path d="m1250,-5911c0,-21 103,-185 107,-172c6,16 -61,144 -86,167c-16,15 -21,16 -21,5z" fill="#1a8a7d" id="svg_15"/>
   <path d="m1120,-5921c0,-13 99,-177 112,-185c4,-3 8,0 8,6c0,14 -57,127 -82,163c-20,28 -38,36 -38,16z" fill="#1a8a7d" id="svg_16"/>
   <path d="m774,-5987c17,-33 134,-179 165,-207c34,-31 38,-9 7,50c-18,34 -56,80 -100,120c-77,70 -94,79 -72,37z" fill="#1a8a7d" id="svg_17"/>
   <path d="m1021,-5992c7,-13 32,-53 57,-90c49,-74 79,-94 37,-25c-14,23 -38,63 -53,89c-15,27 -33,48 -40,48c-10,0 -10,-5 -1,-22z" fill="#1a8a7d" id="svg_18"/>
   <path d="m960,-6045c0,-23 72,-132 77,-118c4,12 -63,133 -73,133c-2,0 -4,-7 -4,-15z" fill="#1a8a7d" id="svg_19"/>
   <path d="m8998,-5901c-109,-133 -169,-219 -162,-231c8,-12 -1,-22 138,160c64,85 115,159 114,164c-2,6 -43,-36 -90,-93z" fill="#1a8a7d" id="svg_20"/>
   <path d="m9138,-5948c-22,-25 -105,-166 -112,-190c-15,-46 11,-19 64,66c30,48 60,97 68,109c16,26 0,39 -20,15z" fill="#1a8a7d" id="svg_21"/>
   <path d="m9211,-6047c-49,-84 -63,-122 -41,-108c12,8 110,172 110,185c0,28 -24,1 -69,-77z" fill="#1a8a7d" id="svg_22"/>
   <path d="m9567,-6072c-55,-58 -143,-196 -119,-187c11,5 96,99 138,154c79,102 67,124 -19,33z" fill="#1a8a7d" id="svg_23"/>
   <path d="m9330,-6097c-28,-42 -48,-79 -44,-82c3,-3 13,3 21,14c8,11 32,44 54,74c40,56 46,71 29,71c-6,0 -33,-34 -60,-77z" fill="#1a8a7d" id="svg_24"/>
   <path d="m9407,-6141c-20,-35 -34,-65 -31,-68c2,-2 5,-2 7,0c55,74 77,113 69,121c-6,6 -22,-12 -45,-53z" fill="#1a8a7d" id="svg_25"/>
   <path d="m1310,-6705c0,-14 32,-61 54,-77c32,-24 330,-178 344,-178c23,0 12,18 -26,43c-22,14 -88,51 -148,83c-102,54 -148,81 -201,120c-13,9 -23,13 -23,9z" fill="#1a8a7d" id="svg_26"/>
   <path d="m1130,-6791c93,-88 171,-139 170,-111c-1,12 -197,167 -217,170c-11,2 8,-22 47,-59z" fill="#1a8a7d" id="svg_27"/>
   <path d="m865,-6820c-4,-6 12,-28 36,-48c52,-45 67,-54 81,-50c6,2 -17,27 -50,56c-38,33 -63,48 -67,42z" fill="#1a8a7d" id="svg_28"/>
   <path d="m750,-6919c0,-14 98,-83 112,-79c7,3 -13,23 -43,46c-57,43 -69,49 -69,33z" fill="#1a8a7d" id="svg_29"/>
   <path d="m650,-6977c1,-20 161,-163 182,-163c19,0 4,22 -53,76c-56,55 -129,104 -129,87z" fill="#1a8a7d" id="svg_30"/>
   <path d="m560,-7049c0,-5 25,-30 55,-56c68,-57 72,-46 7,18c-47,46 -62,56 -62,38z" fill="#1a8a7d" id="svg_31"/>
   <path d="m9004,-6793c-33,-23 -118,-73 -187,-112c-69,-38 -124,-71 -123,-73c8,-7 211,83 265,118c56,38 133,110 115,110c-5,0 -36,-19 -70,-43z" fill="#1a8a7d" id="svg_32"/>
   <path d="m9207,-6856c-115,-93 -144,-131 -49,-65c135,95 195,151 164,151c-5,0 -57,-39 -115,-86z" fill="#1a8a7d" id="svg_33"/>
   <path d="m9478,-6909c-31,-30 -47,-51 -38,-51c19,0 107,87 97,96c-3,3 -30,-17 -59,-45z" fill="#1a8a7d" id="svg_34"/>
   <path d="m1190,-7323c0,-24 227,-171 440,-285c150,-80 517,-239 528,-228c2,3 -15,13 -39,22c-102,40 -519,259 -709,373c-113,68 -208,125 -212,128c-5,2 -8,-2 -8,-10z" fill="#1a8a7d" id="svg_35"/>
   <path d="m9040,-7457c-111,-67 -549,-290 -712,-363c-54,-24 -96,-45 -94,-47c4,-4 94,28 161,57c22,9 56,23 75,30c19,8 99,44 176,80c183,87 310,161 498,292c6,4 8,9 6,11c-3,2 -52,-25 -110,-60z" fill="#1a8a7d" id="svg_36"/>
   <path d="m1140,-7628c0,-31 167,-148 294,-207c97,-45 180,-70 141,-42c-11,7 -74,45 -140,82c-66,38 -149,87 -185,110c-87,56 -110,67 -110,57z" fill="#1a8a7d" id="svg_37"/>
   <path d="m9012,-7797c-220,-126 -281,-166 -219,-147c41,12 354,171 399,202c43,29 88,82 70,82c-4,0 -117,-62 -250,-137z" fill="#1a8a7d" id="svg_38"/>
   <path d="m926,-7736c68,-60 267,-205 330,-240c91,-51 227,-109 300,-128c64,-17 87,-13 33,6c-118,41 -372,182 -568,317c-106,72 -148,92 -95,45z" fill="#1a8a7d" id="svg_39"/>
   <path d="m9355,-7831c-239,-159 -421,-256 -560,-299c-49,-15 -67,-30 -36,-30c105,0 551,230 690,355c38,35 51,56 34,55c-5,-1 -62,-37 -128,-81z" fill="#1a8a7d" id="svg_40"/>
   <path d="m803,-7898c34,-35 172,-115 189,-110c7,3 -14,24 -47,48c-113,83 -198,120 -142,62z" fill="#1a8a7d" id="svg_41"/>
   <path d="m2346,-7903c-15,-11 -17,-21 -12,-53c32,-188 11,-375 -84,-714c-55,-196 -69,-269 -63,-304c5,-26 24,-39 47,-30c7,3 55,80 107,172c129,228 116,217 231,217c108,0 169,-19 214,-66c41,-43 41,-108 0,-162c-76,-100 -425,-277 -546,-277c-64,0 -108,23 -126,67l-16,38l-24,-28c-30,-36 -30,-55 1,-98c38,-51 79,-69 155,-69c100,0 216,38 403,131c122,60 178,102 228,169c76,101 73,206 -7,286c-24,25 -44,48 -44,52c0,4 30,23 66,42c92,47 150,94 163,131c19,56 14,112 -16,157c-62,91 -261,216 -490,306c-112,44 -161,52 -187,33zm330,-202c149,-74 178,-92 227,-144c32,-33 57,-69 57,-80c0,-59 -127,-142 -277,-181c-144,-37 -174,-21 -134,73c30,69 35,109 17,132l-15,20l-20,-20c-11,-11 -34,-49 -52,-85c-41,-82 -68,-122 -79,-115c-5,3 -7,11 -5,18c9,23 55,362 55,404c0,58 8,75 34,68c11,-3 98,-44 192,-90z" fill="#1a8a7d" id="svg_42"/>
   <path d="m9510,-7964c-73,-43 -135,-96 -112,-96c32,0 228,139 197,140c-6,0 -44,-20 -85,-44z" fill="#1a8a7d" id="svg_43"/>
   <path d="m621,-8147c1,-16 158,-146 239,-199c85,-56 347,-191 355,-183c2,2 -35,26 -83,53c-48,27 -183,114 -299,193c-117,79 -213,140 -212,136z" fill="#1a8a7d" id="svg_44"/>
   <path d="m9667,-8245c-109,-80 -286,-192 -434,-275c-62,-34 -113,-64 -113,-66c0,-18 320,144 425,215c96,65 178,133 199,167c9,13 15,24 13,24c-1,0 -42,-29 -90,-65z" fill="#1a8a7d" id="svg_45"/>
   <path d="m6225,-8216c-16,-2 -65,-9 -107,-15c-172,-23 -504,-121 -635,-188c-51,-25 -63,-36 -63,-55c0,-33 54,-76 138,-112c139,-58 290,-135 377,-192c109,-71 204,-156 190,-170c-18,-18 -193,-111 -256,-137c-86,-34 -192,-63 -269,-71c-84,-9 -55,-22 52,-23c135,-2 276,35 457,120c112,52 87,69 221,-160c93,-161 125,-199 155,-187c27,10 17,69 -45,260c-33,103 -60,199 -60,215c0,23 10,38 43,63c264,210 319,264 364,356c34,69 33,120 -1,172c-50,76 -178,116 -393,124c-76,2 -151,2 -168,0zm382,-117c136,-31 148,-90 44,-215c-33,-39 -269,-258 -298,-275c-8,-5 -31,32 -72,115c-32,68 -76,142 -96,166c-58,67 -127,109 -168,103c-5,0 10,-22 32,-47c66,-75 113,-153 148,-244c31,-82 42,-150 24,-150c-10,0 -51,31 -115,87c-101,90 -274,190 -488,281c-81,35 -72,42 122,100c152,46 289,78 400,91c100,13 390,5 467,-12z" fill="#1a8a7d" id="svg_46"/>
   <path d="m655,-8366c87,-78 238,-165 354,-205c63,-22 61,-22 61,-10c0,5 -41,30 -91,56c-49,26 -149,80 -220,121c-72,41 -134,74 -137,74c-4,-1 11,-17 33,-36z" fill="#1a8a7d" id="svg_47"/>
   <path d="m9665,-8426c-82,-47 -205,-115 -272,-151c-68,-35 -123,-66 -123,-68c0,-2 24,3 53,11c80,23 245,106 343,174c86,58 164,119 154,120c-3,0 -72,-39 -155,-86z" fill="#1a8a7d" id="svg_48"/>
   <path d="m8075,-8425c-61,-30 -134,-175 -135,-267c0,-93 34,-125 127,-115c87,9 187,63 284,155c50,47 76,78 68,80c-8,1 -75,-27 -148,-63c-73,-36 -140,-65 -148,-63c-11,2 -3,19 31,64c47,63 76,120 76,149c0,9 -13,30 -29,46c-34,33 -77,38 -126,14zm45,-99c0,-8 -11,-28 -25,-43c-19,-22 -24,-24 -25,-11c0,27 22,68 37,68c7,0 13,-6 13,-14z" fill="#1a8a7d" id="svg_49"/>
   <path d="m4817,-8492c-27,-27 -36,-67 -68,-308c-10,-80 -22,-157 -25,-172c-7,-34 -44,-65 -96,-79c-22,-6 -51,-21 -63,-34c-53,-52 -55,-170 -5,-206c15,-11 52,-21 95,-25c60,-6 75,-11 108,-40c20,-19 46,-34 57,-34c18,0 20,7 20,64c0,105 31,157 45,75c8,-48 35,-79 69,-79c19,0 26,7 30,28c8,42 12,339 4,347c-4,4 -17,5 -30,2c-16,-5 -35,-29 -63,-84c-23,-46 -47,-79 -57,-81c-16,-3 -18,5 -18,55c0,32 12,172 27,310c25,234 26,254 11,269c-15,15 -18,15 -41,-8zm-103,-644c15,-40 -12,-94 -48,-94c-18,0 -46,27 -46,44c0,45 80,87 94,50z" fill="#1a8a7d" id="svg_50"/>
   <path d="m3579,-8559c-50,-51 -29,-121 37,-121c83,0 115,98 43,135c-39,21 -46,19 -80,-14z" fill="#1a8a7d" id="svg_51"/>
   <path d="m3255,-8731c-31,-15 -52,-17 -98,-13c-42,5 -69,2 -102,-10c-106,-41 -153,-171 -75,-211c38,-19 91,-19 155,1l52,17l64,-34c35,-19 85,-56 112,-82c28,-29 54,-47 64,-45c10,2 30,22 46,46c39,58 72,58 87,2c15,-57 46,-74 118,-67c31,3 76,13 99,21c41,14 44,14 72,-10c49,-41 111,-64 177,-64c58,0 154,24 154,39c0,4 -24,8 -52,10c-115,5 -194,35 -204,78c-4,15 -1,47 6,72c7,25 13,57 14,71c1,23 -2,25 -39,23c-22,-2 -75,-3 -119,-3c-87,0 -145,-20 -185,-64c-25,-26 -63,-34 -90,-17c-12,8 -9,22 16,83c43,100 44,105 33,134c-8,20 -15,24 -33,19c-32,-10 -62,-49 -103,-135c-20,-41 -37,-77 -39,-78c-6,-7 -73,30 -78,42c-3,7 -1,32 4,57c21,101 21,109 9,124c-15,18 -15,18 -65,-6zm-115,-120c-12,-21 -69,-51 -82,-43c-8,5 0,32 15,52c5,6 25,12 44,12c31,0 33,-2 23,-21zm624,-138c8,-12 -24,-38 -56,-46c-29,-7 -35,4 -22,39c7,17 69,23 78,7z" fill="#1a8a7d" id="svg_52"/>
   <path d="m4974,-8742c-24,-11 -44,-48 -44,-78c0,-32 36,-60 75,-60c81,0 105,99 34,135c-32,17 -36,17 -65,3z" fill="#1a8a7d" id="svg_53"/>
  </g>
 </g>
</svg>