<?xml version="1.0" standalone="no"?>
<!DOCTYPE svg PUBLIC "-//W3C//DTD SVG 20010904//EN"
 "http://www.w3.org/TR/2001/REC-SVG-20010904/DTD/svg10.dtd">
<svg version="1.0" xmlns="http://www.w3.org/2000/svg"
 width="1024.000000pt" height="1024.000000pt" viewBox="0 0 1024.000000 1024.000000"
 preserveAspectRatio="xMidYMid meet">

<g transform="translate(0.000000,1024.000000) scale(0.100000,-0.100000)"
fill="#000000" stroke="none">
<path d="M5171 9850 c-25 -5 -87 -24 -139 -41 l-95 -32 -19 27 c-16 21 -28 26
-64 26 -72 0 -252 -56 -329 -102 -29 -17 -30 -17 -57 9 -40 38 -83 34 -187
-17 -47 -23 -93 -46 -101 -51 -8 -5 -31 -16 -50 -25 -19 -10 -43 -24 -53 -32
-15 -14 -20 -13 -40 6 -54 51 -153 16 -341 -122 -64 -46 -68 -48 -86 -31 -14
13 -28 15 -67 9 -64 -9 -100 -34 -212 -143 -95 -93 -129 -110 -149 -75 -8 14
-13 14 -33 4 -67 -36 -238 -185 -270 -237 -22 -35 -38 -40 -69 -21 -48 30
-150 -66 -238 -223 -44 -77 -52 -83 -112 -75 -56 7 -94 -10 -106 -47 -3 -12
-24 -45 -45 -73 -21 -27 -48 -70 -59 -95 -41 -87 -55 -104 -91 -110 -49 -8
-73 -23 -114 -74 -37 -45 -115 -210 -115 -243 0 -27 -20 -42 -55 -42 -48 0
-101 -70 -131 -172 -9 -29 -25 -69 -35 -90 -10 -20 -19 -51 -21 -70 -2 -42
-14 -58 -45 -58 -54 0 -75 -27 -120 -154 -21 -59 -26 -96 -30 -214 -5 -126 -4
-145 12 -162 45 -49 -41 -72 -97 -25 -34 28 -41 30 -55 13 -27 -34 -76 -292
-71 -372 3 -46 1 -51 -23 -63 -19 -9 -30 -28 -44 -73 -15 -50 -17 -81 -12
-199 6 -150 6 -151 -50 -190 -25 -17 -33 -31 -39 -66 -6 -44 16 -209 38 -287
13 -45 4 -84 -21 -91 -11 -2 -27 -20 -37 -38 -15 -30 -16 -42 -4 -114 7 -44
15 -84 19 -90 8 -15 42 -134 48 -173 5 -29 1 -38 -26 -63 -30 -27 -31 -31 -25
-81 3 -29 10 -70 16 -91 6 -28 6 -43 -3 -53 -19 -23 -63 11 -141 108 -38 48
-82 96 -96 106 -38 27 -81 33 -108 16 -19 -13 -22 -27 -28 -117 -10 -143 6
-230 60 -342 68 -138 60 -153 -57 -104 -41 17 -112 47 -159 65 -47 19 -101 43
-120 53 -19 10 -53 24 -75 31 -22 7 -45 17 -52 22 -24 19 -67 4 -91 -32 -27
-40 -26 -71 7 -143 12 -25 21 -49 21 -52 0 -15 140 -213 155 -219 9 -3 22 -21
30 -39 8 -19 21 -39 29 -47 9 -7 16 -18 17 -24 0 -6 22 -38 49 -71 53 -64 151
-205 186 -266 12 -20 42 -64 68 -97 25 -33 46 -67 46 -76 0 -21 -53 -56 -142
-93 -43 -17 -92 -40 -110 -51 -65 -39 -129 -72 -139 -72 -15 0 -167 -102 -201
-135 -36 -34 -43 -63 -28 -127 18 -74 35 -106 89 -160 25 -26 71 -72 101 -103
30 -32 85 -82 122 -111 38 -30 94 -79 125 -108 l58 -54 -24 -43 c-14 -24 -37
-60 -53 -79 -15 -19 -28 -38 -28 -42 0 -4 -23 -38 -51 -75 -28 -37 -54 -75
-57 -83 -3 -8 -13 -24 -22 -35 -10 -11 -53 -72 -96 -135 -42 -63 -101 -150
-131 -192 -29 -42 -53 -81 -53 -86 0 -5 10 -14 22 -21 13 -7 34 -27 48 -46
102 -136 226 -255 316 -301 16 -9 40 -25 54 -38 27 -25 235 -171 287 -202 18
-10 84 -51 146 -91 63 -39 168 -100 233 -134 65 -34 140 -75 167 -91 26 -15
53 -28 58 -28 10 0 48 -18 89 -41 38 -22 120 -59 130 -59 7 0 24 -8 38 -19 43
-30 228 -103 412 -163 52 -17 100 -34 105 -38 15 -12 182 -65 325 -104 115
-31 196 -50 445 -105 50 -11 160 -30 245 -41 569 -73 587 -75 910 -100 74 -6
142 -13 150 -16 8 -3 340 -8 737 -11 729 -5 944 1 1208 32 66 8 201 21 300 30
99 9 194 20 210 25 17 5 68 14 115 20 262 35 306 42 315 51 5 5 24 9 42 9 37
0 308 59 418 91 123 36 268 81 340 106 39 13 90 30 115 38 75 22 181 64 260
102 41 19 104 46 140 58 36 12 79 30 95 39 17 9 110 54 209 101 98 47 208 104
245 128 36 24 107 65 156 92 148 80 159 86 195 114 19 14 49 35 66 46 156 98
377 279 512 418 l73 76 -17 32 c-9 18 -37 62 -62 98 -64 92 -74 107 -122 186
-79 130 -189 290 -229 333 -40 44 -57 94 -44 128 11 30 98 126 149 164 68 52
196 171 257 239 40 45 56 72 65 111 21 90 16 125 -20 160 -18 18 -48 39 -67
47 -19 8 -60 32 -92 53 -31 22 -90 55 -130 75 -107 52 -272 150 -283 167 -6
11 -2 25 16 49 14 19 35 54 46 79 12 25 50 80 86 123 36 43 66 82 66 87 0 5
13 24 29 42 30 35 70 91 127 177 20 30 62 86 93 124 31 38 66 83 79 101 33 45
82 179 82 223 0 33 -4 41 -34 57 -39 21 -64 18 -141 -19 -27 -13 -75 -33 -105
-44 -51 -18 -208 -85 -292 -125 -20 -10 -42 -15 -48 -11 -14 9 -4 56 15 71 17
13 81 174 98 247 6 29 12 96 12 149 -1 83 -4 101 -21 125 -39 53 -101 38 -179
-43 -45 -46 -63 -52 -83 -32 -23 23 -14 55 22 77 19 12 37 28 40 37 12 30 5
180 -10 239 -8 33 -20 84 -27 114 -12 57 -12 56 39 87 17 10 18 17 6 108 -7
54 -23 130 -36 170 -39 116 -40 132 -17 165 41 57 22 154 -61 322 -26 53 -48
101 -48 106 0 5 11 20 25 33 42 39 37 57 -72 279 -63 129 -65 135 -50 160 14
24 13 31 -5 86 -12 33 -31 72 -43 87 -13 15 -32 47 -45 72 -12 25 -41 68 -66
95 -49 55 -53 70 -24 96 18 16 18 20 5 51 -16 38 -155 234 -166 234 -4 0 -22
12 -39 27 -33 27 -33 30 -15 104 5 19 0 37 -19 66 -22 33 -142 148 -239 230
-24 20 -25 25 -16 53 8 23 8 38 -1 61 -16 36 -111 119 -220 190 -74 49 -80 55
-80 87 0 64 -131 185 -267 248 l-73 33 0 44 c0 34 -6 48 -27 68 -35 32 -106
73 -164 95 -24 9 -66 25 -94 36 -27 10 -58 21 -67 25 -12 3 -18 18 -20 46 -3
39 -7 44 -58 75 -73 43 -144 69 -248 90 -85 17 -87 18 -90 47 -7 59 -58 91
-198 124 -50 11 -113 21 -138 21 -59 0 -86 14 -86 45 0 13 -11 32 -25 44 -39
30 -81 37 -273 47 -101 6 -125 10 -129 23 -10 28 -36 52 -72 67 -43 18 -261
21 -305 4 -39 -15 -60 -6 -79 35 -13 26 -24 35 -53 41 -49 9 -181 -3 -284 -26
l-85 -19 -25 22 c-14 12 -31 28 -37 36 -16 18 -110 24 -172 11z m129 -53 c0
-2 -11 -31 -25 -65 -31 -77 -32 -141 -3 -193 12 -21 19 -41 16 -44 -14 -14
-134 -23 -182 -14 -70 13 -149 53 -185 95 -34 38 -39 68 -16 100 17 26 145 89
217 108 46 13 178 22 178 13z m-450 -20 c0 -2 -9 -30 -21 -63 -28 -79 -21
-144 21 -195 16 -21 26 -40 21 -43 -4 -3 -35 -12 -67 -21 -124 -32 -246 -9
-318 61 -39 38 -42 48 -23 81 39 69 255 179 360 182 15 1 27 -1 27 -2z m900
-3 c0 -4 -14 -35 -31 -70 -37 -74 -42 -141 -15 -192 10 -19 15 -36 13 -39 -3
-2 -30 -7 -60 -10 -107 -11 -270 61 -311 138 -40 74 4 114 175 159 69 18 229
28 229 14z m425 -78 l26 -17 -35 -39 c-56 -63 -67 -96 -50 -166 7 -31 10 -62
7 -67 -3 -5 -34 -7 -70 -4 -84 6 -180 54 -234 116 -67 76 -66 128 3 156 116
46 297 57 353 21z m-1787 -82 c-14 -95 -7 -127 34 -164 l30 -28 -38 -25 c-105
-69 -260 -60 -346 21 -55 51 -33 99 80 177 74 50 232 119 244 107 4 -4 3 -44
-4 -88z m2178 -19 c81 -25 82 -26 20 -87 -57 -57 -75 -102 -62 -153 21 -86 23
-79 -22 -71 -144 22 -273 121 -306 232 -10 34 23 64 84 79 76 18 225 18 286 0z
m-2603 -98 c-6 -98 7 -133 62 -167 19 -12 35 -26 35 -31 0 -24 -189 -89 -260
-89 -45 0 -164 59 -168 83 -10 52 39 118 143 193 60 42 159 94 181 94 8 0 10
-25 7 -83z m2950 -46 c42 -11 92 -28 112 -39 l37 -19 -53 -42 c-75 -60 -82
-72 -82 -153 l0 -70 -31 6 c-49 10 -148 60 -187 94 -48 42 -102 143 -93 176 7
28 30 52 59 59 49 12 167 6 238 -12z m-1493 -5 c71 -18 162 -27 280 -27 96 0
234 -27 275 -53 25 -16 88 -25 185 -27 76 -1 157 -27 221 -71 15 -9 66 -24
115 -33 115 -20 149 -31 204 -68 25 -16 92 -47 150 -68 165 -59 182 -68 231
-118 46 -49 100 -79 179 -101 59 -16 92 -39 167 -116 34 -35 66 -64 71 -64 5
0 15 -7 23 -16 16 -19 103 -64 125 -64 16 0 159 -143 169 -170 3 -8 33 -35 67
-60 77 -57 131 -112 173 -175 30 -46 103 -124 185 -200 39 -34 100 -127 100
-150 0 -32 40 -92 105 -155 74 -72 80 -83 134 -214 21 -51 63 -129 94 -174 39
-58 59 -99 67 -138 15 -73 62 -189 110 -269 32 -56 38 -76 43 -147 6 -82 43
-194 84 -258 12 -18 17 -55 20 -148 3 -111 7 -133 35 -206 23 -58 31 -93 28
-121 -10 -97 -3 -271 14 -325 17 -57 14 -146 -6 -200 -16 -40 -19 -134 -9
-220 9 -72 8 -86 -10 -133 -26 -66 -41 -164 -43 -292 -3 -102 -9 -125 -59
-206 -32 -53 -219 -279 -230 -279 -18 0 -198 -184 -235 -240 -54 -81 -95 -170
-94 -205 1 -33 47 -81 105 -109 18 -8 43 -26 56 -40 20 -21 23 -32 19 -75 -4
-45 -13 -59 -92 -153 -48 -57 -101 -123 -117 -148 -20 -30 -54 -60 -101 -90
-39 -25 -88 -61 -107 -81 -20 -20 -51 -44 -68 -53 -38 -19 -38 -20 -17 -92 15
-52 15 -56 -6 -100 -15 -30 -34 -51 -59 -63 -75 -39 -160 -111 -215 -184 -61
-81 -96 -112 -166 -146 -70 -33 -124 -76 -166 -132 -22 -28 -51 -57 -66 -65
-40 -21 -85 -18 -98 6 -12 23 -50 165 -50 189 0 9 -7 29 -15 45 -8 15 -17 54
-20 85 -3 31 -12 80 -20 110 -18 69 -10 82 60 115 33 15 55 31 55 41 0 49 67
96 200 140 88 29 101 42 120 115 13 49 78 120 144 155 50 27 66 66 64 156 -2
83 11 116 62 164 53 50 72 108 64 190 -17 187 -19 169 16 203 18 18 42 32 55
32 30 0 69 50 85 109 13 50 6 141 -15 182 -8 14 -16 72 -18 130 -4 89 -9 116
-37 183 -18 43 -48 97 -66 119 -18 23 -56 74 -84 112 -27 39 -79 108 -116 155
-72 94 -154 251 -160 308 -2 20 -6 82 -9 137 -4 82 -11 118 -41 200 -20 55
-42 129 -50 165 -8 35 -19 69 -23 75 -29 36 -6 148 38 185 21 18 41 72 41 111
0 26 4 28 58 39 86 17 88 18 130 61 59 58 91 66 149 38 59 -29 168 -32 224 -7
55 24 162 134 188 193 19 41 22 61 17 114 -3 35 -12 74 -20 86 -17 26 -66 38
-99 26 -92 -36 -108 -47 -157 -107 -50 -62 -79 -80 -117 -72 -27 5 -29 44 -3
58 27 14 50 68 50 115 0 26 -9 48 -31 75 -26 32 -31 47 -29 82 12 182 -1 239
-106 453 -92 188 -165 257 -364 344 -159 70 -453 94 -654 55 -94 -18 -139 -40
-198 -93 -24 -22 -72 -66 -107 -98 -49 -44 -72 -75 -98 -130 -40 -87 -79 -120
-149 -128 -67 -8 -79 -12 -114 -43 -22 -19 -30 -35 -30 -59 0 -29 -3 -33 -25
-33 -15 0 -28 7 -32 18 -4 9 -14 22 -22 28 -13 10 -11 19 21 66 19 30 54 75
77 102 22 26 41 53 41 60 0 7 8 24 19 37 21 28 42 86 45 132 2 18 4 39 5 47 0
9 28 44 61 79 69 73 75 92 75 236 0 82 -5 112 -25 165 -40 106 -106 190 -149
190 -10 0 -29 12 -42 28 -28 30 -79 130 -79 155 0 9 -4 18 -9 21 -4 3 -11 18
-14 33 -10 46 -115 203 -172 256 -16 15 -71 48 -122 72 -85 42 -98 45 -170 45
-110 0 -241 -18 -288 -39 -22 -10 -64 -40 -93 -67 -42 -39 -58 -63 -78 -117
-13 -37 -24 -85 -24 -106 0 -47 -18 -56 -125 -66 -94 -9 -150 -22 -208 -47
-55 -25 -81 -59 -83 -108 -1 -31 7 -43 78 -111 65 -63 78 -81 78 -108 0 -53
-33 -58 -170 -26 -191 44 -191 44 -207 90 -19 54 -9 88 43 146 24 27 47 61 50
74 11 45 -6 114 -36 148 -27 31 -31 32 -107 31 -107 -2 -160 -18 -204 -63 -53
-52 -61 -112 -25 -174 15 -24 50 -67 80 -95 29 -28 56 -58 60 -67 11 -30 -15
-104 -51 -143 -42 -45 -64 -87 -100 -189 -24 -68 -28 -93 -28 -193 0 -155 14
-188 108 -256 46 -33 47 -35 47 -86 1 -207 159 -446 371 -560 41 -22 121 -45
225 -64 30 -5 36 -29 22 -76 -20 -68 -78 -70 -216 -7 -37 17 -101 44 -142 61
-41 16 -100 40 -130 53 -154 66 -257 52 -505 -64 -228 -107 -277 -135 -339
-191 -44 -39 -76 -61 -98 -64 -18 -3 -70 -9 -116 -15 -52 -7 -109 -22 -153
-42 -39 -17 -76 -28 -82 -25 -7 3 -34 19 -62 36 -92 56 -116 64 -214 68 -124
5 -208 -16 -261 -67 -33 -31 -39 -44 -45 -95 -4 -32 -5 -99 -1 -147 l7 -89
-33 -20 c-69 -42 -141 -62 -268 -71 -105 -8 -131 -13 -161 -33 -51 -34 -74
-86 -74 -171 0 -75 17 -117 80 -199 29 -38 30 -42 26 -125 -11 -195 -5 -385
13 -468 27 -128 72 -256 133 -383 30 -63 79 -168 109 -233 29 -65 69 -139 88
-166 106 -143 426 -389 581 -445 19 -7 236 -46 256 -46 21 0 6 -37 -31 -75
-46 -47 -87 -92 -190 -206 -41 -46 -84 -93 -95 -105 -26 -27 -107 -122 -121
-142 -9 -12 -15 -12 -35 -2 -66 34 -210 153 -375 311 -152 145 -251 211 -337
224 -40 6 -44 4 -105 -50 -34 -31 -68 -55 -75 -52 -16 6 -37 73 -37 116 0 25
9 41 40 68 57 51 56 93 -5 192 -57 92 -72 110 -206 248 -59 61 -110 122 -113
135 -3 13 -7 57 -10 98 -3 53 -15 104 -42 175 -35 95 -38 108 -45 265 -4 109
-13 184 -24 220 -11 35 -16 78 -14 120 4 76 3 209 -2 335 -3 68 1 105 15 150
14 46 19 95 20 210 2 138 5 156 30 220 21 55 29 93 33 175 5 99 8 111 53 205
51 106 70 170 70 231 0 21 5 66 11 100 10 57 17 70 84 148 78 91 108 153 127
261 10 55 16 65 79 128 68 67 94 111 134 222 12 35 39 71 86 120 108 112 189
223 189 262 0 7 10 18 23 24 32 18 148 112 178 145 14 16 41 55 60 88 19 32
43 62 54 66 80 31 245 153 245 181 0 13 48 61 76 75 16 9 56 27 88 40 33 13
62 28 65 32 4 4 23 18 43 31 21 12 58 46 82 75 36 41 56 56 100 69 31 10 92
36 136 57 44 22 82 40 85 40 4 0 27 16 52 35 25 19 62 39 82 44 20 5 55 14 77
20 23 6 53 11 66 11 14 0 31 7 38 15 7 8 20 15 30 15 9 0 28 8 41 19 13 10 35
22 49 26 14 4 30 11 35 15 6 5 48 14 95 20 133 19 196 36 248 66 44 27 56 29
197 35 120 5 165 11 225 31 69 22 82 23 165 15 70 -7 106 -6 160 6 93 19 130
20 195 3z m-1870 -106 c0 -84 13 -114 71 -164 36 -31 40 -38 29 -51 -22 -26
-106 -65 -186 -85 -65 -17 -79 -17 -124 -6 -92 24 -121 75 -80 140 23 39 197
201 237 221 49 26 53 21 53 -55z m3735 -84 c44 -14 100 -39 123 -55 l44 -29
-57 -38 c-77 -51 -97 -84 -92 -152 2 -29 0 -55 -4 -58 -14 -8 -81 25 -137 69
-135 103 -191 252 -110 287 36 16 146 4 233 -24z m-4125 -123 c0 -84 50 -160
123 -186 25 -9 -50 -70 -137 -113 -66 -33 -102 -44 -135 -44 -56 0 -111 26
-130 61 -13 24 -13 32 3 72 27 72 218 264 264 266 8 1 12 -17 12 -56z m4435
-90 c100 -24 225 -94 225 -125 0 -10 -14 -21 -35 -28 -73 -24 -114 -78 -130
-169 -4 -22 -11 -41 -16 -41 -21 0 -88 52 -151 117 -51 54 -70 81 -82 123 -19
63 -20 84 -5 111 21 41 67 43 194 12z m-1998 -79 c96 -19 156 -50 212 -106
104 -103 166 -212 206 -359 14 -53 32 -97 42 -105 10 -7 42 -20 71 -29 29 -9
66 -28 83 -43 43 -39 80 -147 86 -252 5 -82 4 -87 -22 -118 -15 -17 -33 -32
-40 -32 -8 0 -20 29 -31 72 -9 40 -37 113 -62 163 -60 121 -185 246 -316 319
-60 34 -97 61 -115 87 -14 21 -40 46 -58 55 -27 15 -38 16 -83 6 -28 -7 -68
-12 -89 -12 -39 0 -233 61 -257 81 -32 26 -10 140 37 194 47 54 122 82 247 94
7 0 47 -6 89 -15z m-2806 -93 c16 -83 40 -118 99 -144 27 -12 50 -27 50 -34 0
-36 -165 -151 -250 -174 -40 -11 -51 -10 -93 9 -76 34 -79 54 -24 166 47 93
163 236 192 236 9 0 18 -22 26 -59z m5192 -124 c83 -42 187 -117 187 -136 0
-4 -21 -13 -47 -20 -72 -19 -109 -52 -134 -121 -15 -43 -27 -60 -39 -60 -23 0
-100 85 -162 179 -56 86 -64 138 -26 186 19 25 26 27 75 23 37 -3 81 -19 146
-51z m-3596 -126 c16 -57 27 -182 19 -216 l-7 -27 -29 40 c-16 22 -44 52 -63
66 -42 32 -59 71 -55 122 4 45 33 66 88 62 31 -3 35 -7 47 -47z m110 17 c18
-28 12 -58 -11 -58 -21 0 -39 37 -31 67 7 29 21 27 42 -9z m-2041 -67 c14 -78
47 -111 127 -126 20 -4 40 -11 43 -16 10 -16 -33 -73 -83 -110 -166 -124 -220
-141 -286 -88 -18 13 -27 30 -27 48 0 71 90 261 154 325 37 37 40 38 52 21 8
-10 17 -35 20 -54z m2777 2 c37 -8 67 -19 67 -24 0 -11 0 -11 -101 -33 -42
-10 -112 -35 -155 -57 -43 -21 -84 -39 -90 -39 -16 0 -84 90 -84 111 0 62 181
83 363 42z m2967 -86 c31 -13 81 -40 111 -60 63 -42 159 -133 159 -152 0 -6
-25 -18 -56 -25 -70 -17 -97 -38 -136 -106 -16 -30 -33 -54 -38 -54 -15 0 -78
78 -121 151 -39 65 -44 82 -47 144 -3 60 -1 74 18 98 26 33 39 33 110 4z
m-2695 -82 c39 -14 99 -37 135 -49 142 -50 206 -95 283 -201 29 -38 83 -108
121 -155 92 -113 99 -131 94 -251 -3 -94 -4 -98 -43 -155 -57 -83 -146 -175
-226 -235 -78 -57 -91 -75 -82 -110 17 -68 58 -92 118 -69 23 9 25 14 19 45
-6 33 -4 35 19 35 50 0 41 -66 -15 -116 -37 -35 -79 -51 -148 -58 -108 -11
-138 -36 -262 -221 -114 -170 -281 -445 -292 -482 -5 -16 0 -32 18 -56 41 -54
36 -65 -58 -142 -71 -57 -129 -91 -294 -170 -98 -47 -125 -56 -132 -45 -13 20
-50 229 -57 319 -6 76 -5 80 20 105 20 20 36 26 70 26 29 0 49 6 60 18 8 9 55
100 102 202 48 102 92 190 98 196 7 6 101 39 211 73 193 60 273 92 288 115 15
21 8 55 -11 61 -12 3 -71 -14 -148 -44 -266 -102 -335 -114 -503 -86 -179 30
-244 64 -341 178 -120 143 -171 289 -149 427 12 72 11 75 -10 92 -13 10 -39
18 -61 18 -26 0 -47 8 -66 24 -25 22 -28 31 -31 105 -2 45 1 103 7 129 21 85
73 203 106 238 l32 34 111 0 c86 0 131 -6 208 -26 154 -40 202 -24 312 104 30
34 58 62 63 62 12 0 11 -72 -1 -105 -6 -17 -25 -32 -55 -45 -61 -26 -60 -51 4
-120 48 -51 51 -53 73 -38 33 22 70 166 72 281 l1 87 40 15 c63 23 76 24 155
20 50 -2 99 -12 145 -30z m-3345 -170 c36 -76 68 -101 138 -111 l51 -6 -19
-38 c-11 -21 -59 -74 -107 -119 l-88 -81 -72 0 c-63 0 -74 3 -87 22 -24 35
-19 72 24 180 62 153 98 218 121 218 4 0 22 -29 39 -65z m6380 -122 c60 -35
200 -175 200 -200 0 -17 -11 -21 -76 -31 -85 -12 -108 -26 -136 -89 -10 -24
-23 -43 -27 -43 -20 0 -86 88 -119 159 -30 62 -36 86 -35 134 2 96 45 138 113
110 19 -8 55 -26 80 -40z m-6650 -234 c34 -57 77 -85 145 -94 30 -3 55 -11 55
-17 0 -63 -89 -182 -179 -240 -58 -36 -130 -39 -162 -7 -20 20 -21 29 -16 103
9 107 33 184 85 269 13 21 28 37 35 34 6 -2 23 -23 37 -48z m5280 -90 c35 -6
103 -25 150 -43 138 -54 197 -97 248 -181 33 -55 36 -66 35 -130 0 -38 -8 -92
-17 -120 -20 -63 -20 -184 -1 -259 9 -32 13 -66 10 -75 -2 -9 -32 -45 -66 -81
-95 -101 -112 -147 -119 -312 l-5 -138 -47 -42 c-46 -43 -64 -87 -56 -134 4
-22 -25 -29 -78 -19 -24 4 -42 18 -65 50 -39 54 -81 75 -214 111 -78 20 -108
34 -137 60 -20 18 -50 40 -67 48 -39 21 -133 21 -173 0 -39 -20 -87 -12 -129
24 -36 30 -121 198 -138 272 -15 66 -14 227 2 237 6 4 42 10 78 14 69 6 129
36 129 65 0 11 -21 14 -105 14 -120 0 -157 11 -198 59 -58 69 -41 151 31 151
38 0 79 -20 144 -71 39 -31 92 -47 102 -31 9 15 -10 58 -45 102 l-32 39 17 44
c36 96 133 216 215 269 42 26 51 28 152 28 124 0 139 4 139 35 0 17 7 25 23
28 30 5 137 -2 217 -14z m1597 -32 c70 -52 148 -138 185 -205 l28 -49 -78 -5
c-45 -3 -91 -12 -110 -22 -28 -15 -64 -58 -75 -91 -14 -39 -112 146 -122 229
-9 73 2 134 31 163 35 35 73 30 141 -20z m-7111 -257 c36 -54 87 -84 154 -90
43 -4 56 -9 58 -23 5 -26 -49 -133 -93 -185 -33 -38 -41 -42 -69 -37 -21 4
-51 -1 -86 -14 -52 -20 -56 -20 -68 -4 -19 26 -11 212 12 278 17 48 53 115 62
115 2 0 16 -18 30 -40z m7310 -132 c86 -81 194 -236 194 -278 0 -6 -33 -9 -87
-8 -102 2 -123 -7 -159 -63 -28 -45 -36 -43 -63 9 -44 87 -67 220 -50 287 32
120 79 135 165 53z m-2811 -183 c11 -22 30 -55 41 -73 23 -36 39 -134 29 -175
-8 -31 -24 -36 -160 -43 -114 -6 -192 -24 -235 -54 -86 -60 -265 -131 -291
-115 -12 8 -12 55 0 55 5 0 21 19 34 43 14 23 57 72 95 110 69 66 70 67 124
67 70 0 141 24 198 67 49 37 90 96 90 129 0 51 47 44 75 -11z m-4484 -137 c9
-164 -47 -347 -127 -417 -48 -42 -118 -67 -150 -52 -69 31 -83 235 -27 389 9
23 17 42 18 42 1 0 24 -9 50 -21 63 -28 98 -20 164 36 60 51 71 54 72 23z
m7444 -80 c25 -22 62 -64 82 -91 39 -53 106 -205 97 -219 -5 -8 -35 -6 -121 7
-40 6 -91 -15 -122 -50 -17 -19 -35 -35 -40 -35 -11 0 -46 89 -61 153 -21 92
-5 173 47 245 33 44 63 42 118 -10z m-4560 -198 c85 -56 210 -110 255 -110 30
0 41 -22 30 -62 -15 -53 -44 -84 -98 -104 -76 -28 -107 -56 -122 -111 -7 -26
-16 -52 -21 -57 -13 -14 -58 26 -103 94 -76 115 -116 237 -116 353 l0 70 41
-6 c27 -3 72 -26 134 -67z m1619 45 c22 -8 44 -22 50 -32 17 -28 56 -146 51
-151 -2 -3 -55 0 -117 6 -127 13 -220 6 -363 -28 -100 -24 -136 -45 -155 -90
-19 -46 -7 -72 47 -100 46 -24 102 -89 103 -120 0 -17 -21 -30 -181 -111 -127
-64 -277 -112 -333 -107 l-36 3 55 68 c64 80 75 118 50 183 l-17 45 33 80 c44
105 83 151 149 172 29 9 60 17 70 17 45 0 146 42 216 90 42 28 99 60 128 70
62 23 194 25 250 5z m-2111 -61 c10 -16 46 -78 79 -139 70 -129 186 -305 262
-397 30 -36 96 -102 147 -148 52 -46 99 -95 106 -109 18 -39 16 -71 -4 -71
-53 0 -262 161 -349 267 -68 85 -304 551 -304 602 0 19 16 31 35 27 6 -1 18
-16 28 -32z m5136 -174 c29 -15 99 -114 136 -192 33 -69 62 -174 51 -185 -3
-3 -32 2 -64 11 -94 26 -151 19 -200 -27 -28 -26 -37 -18 -56 58 -32 122 -15
228 50 304 36 42 52 48 83 31z m-7904 -30 c53 -56 141 -73 233 -45 20 7 22 4
22 -33 0 -101 -70 -248 -143 -300 -55 -40 -93 -44 -118 -13 -23 28 -59 188
-59 261 0 64 17 160 29 160 4 0 20 -13 36 -30z m4675 -4 c0 -34 -81 -61 -131
-45 -56 19 -54 26 12 42 83 20 119 21 119 3z m353 -6 c122 -46 367 -248 367
-304 0 -25 -110 44 -194 121 -69 64 -121 98 -190 126 -51 20 -96 53 -96 69 0
15 58 8 113 -12z m-3366 -15 c66 -20 175 -100 223 -164 71 -94 91 -221 44
-283 -78 -104 -186 -87 -299 48 -75 88 -113 112 -188 113 -54 1 -75 15 -87 59
-15 56 -13 144 6 170 42 61 192 89 301 57z m3277 -94 c75 -36 139 -79 240
-159 76 -61 154 -118 174 -128 29 -14 62 -16 173 -15 90 1 139 -2 144 -9 11
-18 47 0 97 47 25 25 51 42 57 39 22 -14 10 -44 -39 -100 -27 -31 -50 -61 -50
-66 0 -4 12 -17 27 -28 16 -11 25 -23 21 -27 -4 -4 -56 -13 -117 -20 -114 -13
-171 -35 -215 -84 -40 -44 -98 -18 -201 88 l-50 52 -6 -28 -6 -28 -13 30 c-7
17 -35 76 -61 132 -49 101 -49 102 -184 219 -74 65 -135 122 -135 126 0 19 49
5 144 -41z m520 -23 c77 -78 138 -157 134 -175 -2 -12 -14 -19 -35 -21 -28 -3
-39 6 -111 88 -44 49 -85 104 -91 120 -10 30 -9 30 25 30 28 0 44 -9 78 -42z
m-719 -58 c0 -14 -60 -38 -71 -27 -3 3 0 15 6 27 13 25 65 25 65 0z m1431 -16
l25 -17 -22 -23 c-28 -30 -35 -30 -55 1 -13 20 -14 28 -4 40 16 19 25 19 56
-1z m-446 -24 c12 -7 11 -13 -10 -34 -13 -15 -27 -26 -31 -26 -6 0 -29 53 -29
66 0 8 56 3 70 -6z m384 -183 c3 -18 7 -59 10 -92 3 -33 17 -92 31 -130 40
-105 75 -258 85 -375 13 -140 33 -211 82 -295 46 -78 147 -218 246 -340 97
-120 123 -183 133 -319 4 -65 16 -137 28 -174 30 -91 28 -134 -9 -176 -17 -19
-43 -39 -58 -44 -25 -9 -34 -4 -102 58 l-75 68 0 81 c0 79 0 80 -38 118 -58
60 -154 105 -236 111 -81 5 -132 -9 -180 -51 l-35 -30 -57 61 c-70 75 -120
175 -159 321 -50 190 -107 374 -145 471 -48 123 -51 142 -31 194 23 61 65 97
118 103 36 4 55 -1 118 -34 45 -23 79 -48 87 -63 6 -14 25 -54 41 -90 16 -36
47 -85 69 -110 78 -87 123 -163 149 -246 26 -88 42 -104 69 -73 39 42 -2 171
-89 279 -104 129 -144 214 -170 364 -16 94 -41 144 -87 177 -38 27 -37 40 7
64 75 40 124 120 124 201 0 42 8 47 41 23 18 -12 30 -32 33 -52z m-4606 -3
c15 -9 47 -42 71 -75 81 -111 118 -127 321 -139 192 -12 288 -37 444 -116 122
-63 209 -126 303 -220 82 -84 98 -106 150 -211 55 -112 60 -118 91 -121 36 -4
35 -5 32 84 -3 110 42 165 123 150 48 -9 68 -36 81 -108 13 -71 -7 -60 163
-91 45 -8 125 -34 179 -57 l97 -42 55 21 c155 60 225 -20 176 -198 -20 -72
-13 -116 26 -166 37 -46 38 -84 6 -146 -34 -64 -40 -108 -26 -199 10 -64 10
-86 0 -110 -22 -54 -48 -60 -260 -60 -224 0 -242 -5 -296 -80 -44 -62 -59 -70
-124 -70 -62 0 -120 -24 -255 -104 -236 -140 -307 -156 -505 -111 -84 19 -149
16 -225 -10 -88 -31 -302 -2 -415 55 -51 26 -304 234 -413 339 -64 62 -98 116
-169 273 -192 425 -218 512 -218 730 0 66 8 167 17 225 16 101 16 105 -3 141
-10 19 -36 56 -57 81 -45 55 -58 97 -47 147 15 65 36 77 133 75 99 -1 201 25
342 88 99 44 159 52 203 25z m3504 4 c8 -7 18 -23 21 -36 6 -26 8 -26 -158
-41 -144 -13 -240 -38 -343 -90 -218 -110 -348 -134 -715 -133 -148 1 -277 4
-288 7 -25 8 -24 31 1 45 15 8 55 7 143 -1 105 -11 135 -10 217 4 173 29 480
115 660 185 154 60 419 94 462 60z m3007 -23 c43 -49 69 -104 92 -192 18 -71
26 -163 14 -163 -3 0 -33 9 -67 21 -69 23 -119 20 -182 -12 -45 -24 -52 -19
-62 49 -15 102 18 233 75 293 50 52 87 53 130 4z m-8067 -21 c54 -34 105 -41
167 -20 27 9 55 16 60 16 18 0 13 -123 -8 -189 -39 -125 -103 -196 -173 -189
-30 3 -36 10 -66 70 -37 76 -62 177 -62 255 0 91 13 100 82 57z m5332 -244
c42 -53 51 -70 38 -70 -19 0 -72 51 -91 87 -11 21 -15 53 -7 53 2 0 29 -31 60
-70z m509 21 c28 -11 67 -49 67 -66 0 -7 -31 -11 -92 -10 -70 0 -101 -4 -125
-17 -36 -20 -95 -74 -109 -101 -7 -11 -16 -15 -27 -11 -29 11 -30 43 -2 99 27
56 64 91 113 105 38 12 146 12 175 1z m-2324 -145 l22 -24 -27 -21 c-43 -34
-84 -22 -84 24 0 48 52 60 89 21z m4560 -34 c36 -35 77 -160 93 -280 15 -118
8 -128 -61 -89 -70 39 -126 44 -186 18 -26 -12 -51 -19 -54 -15 -3 3 -6 38 -5
77 2 122 59 256 127 297 42 26 53 25 86 -8z m-8107 -44 c59 -31 142 -31 185 0
17 12 33 22 36 22 11 0 27 -66 27 -109 0 -55 -24 -160 -45 -201 -32 -62 -100
-105 -142 -89 -49 18 -132 242 -133 357 0 50 10 52 72 20z m5505 -62 c67 -69
137 -171 171 -249 12 -26 31 -94 43 -150 12 -56 28 -119 35 -141 8 -21 14 -58
14 -82 0 -40 -6 -50 -55 -104 -30 -33 -55 -64 -55 -69 0 -15 23 -29 85 -51 33
-13 64 -26 68 -30 4 -4 -47 -10 -115 -13 -68 -4 -140 -9 -160 -13 -36 -6 -38
-5 -38 21 0 16 14 57 31 92 61 126 51 246 -36 407 -60 111 -96 239 -96 343 -1
45 2 87 6 93 14 22 42 7 102 -54z m-1975 -177 c11 -6 18 -18 16 -27 -3 -13
-13 -17 -43 -15 -53 2 -148 34 -153 52 -4 12 9 13 78 7 45 -4 91 -11 102 -17z
m1223 -204 c5 -53 5 -58 -8 -42 -17 21 -31 102 -21 118 11 18 21 -9 29 -76z
m3340 45 c18 -20 55 -138 55 -176 0 -30 -51 -97 -95 -124 -21 -13 -75 -31
-121 -40 l-84 -16 0 55 c0 87 45 226 88 275 41 45 126 60 157 26z m-7834 -27
c5 -14 12 -67 16 -117 8 -119 -12 -194 -67 -248 -72 -72 -122 -44 -197 110
-41 85 -63 160 -63 216 0 32 3 37 18 31 118 -50 192 -46 246 14 25 28 34 26
47 -6z m5156 -59 c29 -18 68 -72 82 -113 15 -47 14 -127 -4 -159 -30 -56 -28
-56 -86 -25 -72 37 -171 39 -239 4 -57 -29 -106 -76 -130 -121 -24 -48 -41
-144 -34 -191 8 -45 0 -48 -47 -16 -87 59 -131 169 -110 276 37 183 168 313
361 356 73 16 173 11 207 -11z m-5652 -121 c60 -65 236 -244 392 -398 339
-337 548 -564 532 -579 -2 -2 -78 -9 -169 -15 -466 -33 -500 -40 -658 -133
l-104 -61 -26 33 c-15 19 -34 44 -42 56 -8 13 -60 85 -116 161 -236 322 -433
638 -411 659 10 11 121 -22 186 -55 31 -16 115 -65 187 -108 71 -44 159 -97
197 -117 l67 -38 0 40 c0 22 -32 145 -71 273 -96 314 -115 399 -86 399 6 0 61
-53 122 -117z m8589 -4 c0 -25 -27 -127 -62 -234 -92 -288 -104 -329 -100
-373 l3 -41 120 75 c66 41 173 102 239 135 115 59 254 114 264 104 9 -9 -31
-87 -113 -220 -125 -203 -458 -665 -480 -665 -6 0 -35 16 -64 36 -124 84 -233
116 -456 135 -71 6 -191 16 -265 23 -108 9 -135 14 -138 27 -1 8 39 60 89 115
138 149 942 933 954 930 6 -2 10 -23 9 -47z m-3022 -209 c81 -23 106 -118 48
-183 -32 -37 -39 -71 -16 -80 17 -7 35 -3 140 29 142 44 303 41 396 -6 45 -23
54 -49 29 -89 -23 -38 -61 -63 -107 -70 -55 -9 -55 -41 0 -78 31 -21 44 -37
46 -57 3 -26 1 -28 -20 -21 -13 4 -34 8 -48 9 -36 2 -39 -42 -6 -82 64 -75 -3
-230 -125 -293 -49 -25 -82 -24 -137 2 -61 30 -102 89 -102 147 0 41 4 48 58
101 33 31 65 67 72 80 11 21 10 26 -6 38 -11 8 -27 12 -37 9 -60 -15 -64 42
-6 95 45 42 47 69 5 69 -73 0 -106 -48 -117 -174 -5 -49 -16 -112 -25 -139
-36 -109 -8 -184 104 -272 28 -22 51 -47 51 -55 1 -38 -82 -100 -136 -100 -64
0 -94 83 -53 145 25 37 25 42 0 55 -15 8 -44 7 -110 -5 -115 -19 -146 -19
-197 4 -51 24 -94 84 -100 144 -7 63 45 169 135 277 39 47 72 92 72 101 0 9
-11 47 -25 83 -14 37 -25 84 -25 104 0 115 86 217 185 221 11 1 37 -4 57 -9z
m-5002 -74 c24 -53 36 -141 21 -150 -12 -8 -116 77 -125 101 -7 18 62 105 76
97 6 -4 18 -25 28 -48z m6048 -216 c96 -43 132 -110 77 -146 -20 -13 -40 -16
-88 -12 -131 11 -239 108 -179 160 36 33 113 32 190 -2z m-1543 -28 c58 -32
165 -107 165 -115 0 -4 -23 -44 -51 -88 -59 -94 -74 -134 -84 -213 -5 -36 -12
-56 -19 -53 -6 3 -81 34 -166 69 -85 36 -176 73 -202 83 -57 21 -61 41 -24
120 66 144 280 254 381 197z m1290 -92 c54 -56 135 -98 264 -136 11 -4 10 -8
-4 -24 -10 -11 -24 -20 -32 -20 -7 0 -69 15 -136 34 -67 19 -148 38 -179 41
l-57 6 52 65 c28 35 54 64 57 64 4 0 19 -14 35 -30z m-2255 -180 c397 -26 736
-138 1024 -338 43 -30 128 -79 188 -108 60 -30 139 -77 174 -104 36 -28 69
-50 74 -50 23 0 178 -131 246 -208 127 -144 201 -265 257 -417 50 -139 172
-606 164 -629 -3 -8 -83 -28 -224 -55 -283 -55 -266 -52 -280 -43 -7 4 -26 48
-44 97 -63 180 -221 468 -346 632 -109 144 -266 263 -450 341 -184 78 -498
194 -588 217 -145 37 -432 65 -666 65 -211 0 -370 -64 -694 -281 -359 -241
-537 -449 -710 -829 -45 -101 -55 -115 -78 -118 -15 -2 -84 13 -154 33 -167
47 -213 64 -214 78 0 7 -1 53 -2 102 -2 78 -6 99 -29 144 -16 29 -28 61 -28
71 0 58 199 396 323 550 94 116 301 317 416 404 97 72 107 78 140 72 192 -35
253 -33 393 14 51 17 140 57 198 89 165 92 184 100 262 112 91 14 117 27 164
84 40 49 62 64 109 76 44 10 209 10 375 -1z m2695 -32 c57 -68 99 -161 103
-234 6 -94 -2 -122 -63 -202 -54 -72 -55 -75 -55 -140 0 -83 -18 -115 -92
-167 -64 -45 -89 -81 -112 -157 -19 -66 -43 -85 -121 -98 -73 -12 -105 -30
-163 -95 -37 -43 -58 -57 -85 -62 -32 -5 -40 -1 -66 26 -34 36 -67 145 -57
188 21 85 25 78 -54 109 -87 34 -133 81 -191 199 l-41 82 12 61 c23 117 52
120 100 12 40 -90 79 -133 157 -172 107 -52 248 -50 228 4 -8 20 -25 27 -94
39 -87 14 -158 54 -192 107 -36 57 -53 107 -45 136 3 12 32 43 64 68 l58 45
69 -64 c142 -129 366 -199 353 -110 -2 18 -16 25 -84 43 -101 25 -157 58 -222
129 -57 62 -69 100 -53 163 23 82 92 131 170 118 56 -9 266 -75 340 -107 65
-27 66 -28 86 -9 17 18 18 24 7 65 -21 81 -11 86 43 23z m-5979 -249 c8 -13
-18 -35 -74 -65 -21 -10 -78 -42 -129 -71 -111 -64 -136 -66 -186 -18 -30 29
-37 43 -37 74 0 46 16 69 55 80 46 14 362 13 371 0z m7145 -40 c86 -19 111
-67 69 -136 -25 -41 -54 -56 -94 -49 -31 6 -210 100 -291 154 -40 26 -40 26
-15 33 40 11 275 10 331 -2z m-7669 -37 c13 -48 64 -131 111 -180 50 -51 117
-94 292 -189 228 -124 250 -136 260 -143 6 -4 30 -18 55 -32 25 -14 79 -44
122 -67 99 -54 110 -67 79 -92 -13 -11 -49 -26 -80 -35 -54 -16 -62 -16 -236
10 -202 30 -383 65 -528 101 -113 29 -157 31 -197 10 -17 -9 -89 -95 -175
-210 -80 -107 -151 -195 -158 -195 -13 0 -378 314 -415 358 -13 15 -40 60 -59
101 -41 87 -45 80 78 150 46 26 152 87 234 136 168 98 516 287 561 303 39 14
47 11 56 -26z m8148 -147 c332 -176 640 -365 654 -401 11 -28 -53 -142 -112
-202 -78 -78 -368 -332 -378 -331 -5 0 -67 80 -139 177 -71 97 -147 196 -169
219 -37 42 -40 43 -100 43 -38 0 -101 -11 -166 -30 -58 -17 -154 -37 -215 -45
-60 -9 -173 -25 -249 -36 -179 -27 -286 -24 -339 10 -37 23 -38 24 -20 41 10
10 68 43 128 75 122 64 322 171 520 279 183 99 258 174 301 300 l16 47 42 -24
c22 -14 124 -69 226 -122z m-7542 70 c19 -58 12 -167 -14 -201 -28 -38 -47
-48 -76 -41 -29 8 -158 123 -158 142 0 17 200 146 220 142 8 -1 21 -20 28 -42z
m242 -70 c14 -17 5 -85 -16 -112 -13 -17 -15 -17 -34 6 -26 30 -25 69 2 98 25
27 31 28 48 8z m6541 -16 c23 -12 16 -29 -11 -29 -21 0 -34 15 -25 30 8 13 12
12 36 -1z m-6257 -139 c71 -63 179 -157 240 -208 142 -119 166 -141 166 -155
-1 -7 -31 -64 -69 -127 -44 -74 -74 -115 -84 -114 -9 1 -65 30 -125 65 -103
60 -113 68 -147 127 -23 38 -67 89 -112 130 -41 37 -86 86 -100 110 -35 59
-31 77 53 281 17 40 0 50 178 -109z m-398 18 c31 -38 100 -176 91 -185 -17
-16 -177 71 -177 97 0 19 43 120 52 120 3 0 19 -15 34 -32z m6718 3 c8 -13
-70 -64 -166 -109 -80 -37 -88 -39 -88 -21 0 31 82 103 137 122 53 17 109 22
117 8z m-4026 -507 c3 -531 10 -491 -96 -517 -54 -13 -65 -13 -77 -1 -28 28
-79 187 -152 474 -107 416 -104 402 -84 422 17 18 335 89 381 85 l25 -2 3
-461z m-3315 91 c64 -15 409 -81 577 -111 52 -9 102 -19 110 -21 29 -9 -196
-203 -236 -203 -49 0 -282 136 -456 268 -116 87 -115 96 5 67z m-93 -120 c160
-118 225 -157 435 -260 576 -284 1093 -459 1726 -584 528 -105 891 -143 1510
-161 748 -22 1436 30 2044 154 429 87 704 166 1092 312 430 161 668 276 924
446 101 66 191 123 200 125 19 5 75 -69 483 -646 17 -24 95 -131 174 -239 78
-107 142 -201 142 -208 0 -8 -33 -48 -72 -90 -322 -339 -1050 -753 -1773
-1008 l-97 -34 -14 33 c-26 64 -23 69 94 130 272 144 397 253 378 330 -9 34
-33 32 -41 -4 -13 -60 -72 -111 -194 -169 -181 -85 -282 -125 -293 -114 -12
12 -82 257 -107 375 -10 51 -22 144 -26 207 -9 149 -34 191 -87 143 -16 -14
-18 -33 -19 -142 0 -127 -17 -209 -45 -218 -7 -2 -18 25 -29 69 -27 115 -35
137 -56 149 -15 8 -24 7 -35 -2 -12 -10 -14 -28 -8 -99 8 -104 7 -105 -112
-162 -109 -52 -126 -48 -74 17 52 65 70 104 70 151 0 54 -31 84 -87 84 -58 0
-109 -46 -160 -145 -21 -41 -41 -75 -45 -75 -4 0 -12 18 -18 40 -17 63 -57
101 -113 107 -89 10 -175 -15 -271 -81 -22 -14 -51 -29 -65 -32 -93 -21 -101
-25 -131 -70 -72 -104 -97 -199 -70 -265 13 -30 55 -59 86 -59 40 0 98 26 140
63 l45 40 84 -24 84 -23 37 -106 c64 -183 95 -230 150 -230 23 0 38 7 48 22
24 34 20 51 -24 92 -22 20 -47 47 -55 60 -20 30 -65 163 -65 191 0 12 22 47
49 78 27 31 56 66 65 79 l16 22 39 -43 c40 -43 41 -43 99 -39 58 4 140 38 254
105 l47 28 33 -32 c47 -46 84 -51 131 -19 21 15 42 24 46 21 5 -2 26 -73 46
-156 36 -144 37 -153 20 -165 -21 -16 -150 -46 -307 -73 -137 -23 -155 -31
-166 -74 -11 -39 2 -68 52 -116 20 -19 36 -38 36 -42 0 -23 -375 -99 -637
-128 -789 -89 -892 -94 -1828 -81 -798 11 -891 16 -1435 86 -382 48 -517 79
-1168 260 -344 96 -559 178 -847 322 -568 284 -992 571 -1187 805 -38 46 -47
64 -42 80 4 12 55 85 113 162 59 77 136 181 172 230 35 50 129 176 209 281 80
105 180 239 223 298 89 123 70 121 207 21z m7785 65 c-10 -11 -68 -50 -129
-87 -61 -37 -169 -102 -240 -145 -174 -105 -173 -105 -306 18 -25 23 -58 53
-75 67 -16 14 -28 28 -24 31 7 7 249 49 464 81 94 14 195 31 225 39 30 8 66
14 79 15 23 1 24 0 6 -19z m-6699 -96 c20 -61 21 -71 8 -113 -17 -57 -47 -84
-84 -76 -15 3 -58 22 -94 41 l-67 36 23 28 c13 16 52 65 88 109 64 78 65 80
84 61 10 -10 29 -49 42 -86z m3866 -66 c16 -13 95 -129 134 -196 26 -45 17
-56 -107 -124 -74 -41 -114 -58 -141 -58 -29 0 -41 -6 -57 -29 -30 -41 -510
-311 -554 -311 -30 0 -51 23 -43 47 14 43 261 280 451 433 105 84 273 228 280
240 8 13 18 13 37 -2z m-3722 -38 c25 -13 99 -110 139 -181 25 -45 31 -67 31
-116 0 -84 -12 -92 -96 -70 -91 23 -203 72 -275 118 -68 45 -68 60 1 79 65 18
103 50 135 118 31 65 35 68 65 52z m5655 -24 c41 -17 55 -42 55 -95 0 -88 -71
-163 -187 -197 l-53 -15 -32 31 c-18 17 -57 37 -85 46 -34 10 -53 21 -53 31 0
18 94 111 156 154 46 31 111 57 147 58 10 1 33 -5 52 -13z m-5992 -84 c14 -15
17 -29 12 -56 -4 -20 -11 -38 -15 -41 -6 -4 -167 69 -179 81 -7 7 30 42 62 57
28 14 34 14 66 -3 20 -10 44 -27 54 -38z m2787 -17 c52 -13 145 -35 206 -49
138 -31 238 -65 323 -112 98 -53 100 -56 67 -99 -15 -19 -62 -72 -105 -117
l-77 -81 -107 76 c-166 120 -255 158 -403 173 -34 4 -67 9 -72 13 -12 7 -18
202 -7 220 8 13 39 9 175 -24z m-568 -150 l39 -130 -44 -40 c-66 -61 -167
-125 -197 -125 -42 0 -360 208 -360 236 0 26 85 84 169 114 99 37 282 80 325
77 29 -2 31 -5 68 -132z m-784 -8 c103 -74 217 -156 253 -183 36 -27 111 -80
167 -119 56 -38 102 -76 102 -84 0 -11 -25 -13 -137 -8 -150 5 -226 22 -348
77 -85 38 -345 198 -352 216 -5 12 112 234 123 234 3 0 89 -60 192 -133z
m2100 103 c23 -10 42 -23 42 -28 0 -9 -66 -72 -75 -72 -2 0 -20 7 -39 16 -41
20 -60 55 -43 77 25 31 58 33 115 7z m2138 -145 c20 -8 33 -19 30 -24 -12 -19
-324 -131 -363 -131 -13 0 -13 4 2 28 24 37 50 57 120 94 99 51 149 59 211 33z
m-2918 -95 c88 -25 223 -90 323 -156 74 -49 179 -144 179 -163 0 -29 -314 -26
-825 8 -165 11 -312 21 -327 21 -42 0 -36 35 15 84 49 49 265 179 340 207 72
25 200 25 295 -1z m1178 -85 c10 -8 14 -15 8 -15 -5 0 -19 7 -30 15 -10 8 -14
15 -8 15 5 0 19 -7 30 -15z m-45 -96 c75 -45 128 -95 113 -108 -10 -10 -314
-31 -450 -31 -61 0 -85 3 -82 12 2 6 71 49 153 94 169 94 163 93 266 33z
m1302 -812 c-20 -34 -43 -47 -43 -24 0 21 40 68 51 61 6 -3 2 -18 -8 -37z
m-301 -44 c33 -29 15 -116 -33 -159 -25 -23 -30 -16 -61 78 -18 55 -19 69 -9
82 18 21 80 20 103 -1z m-173 -121 c31 -106 31 -122 -3 -122 -22 0 -66 43 -66
64 0 3 -10 26 -21 51 -23 50 -17 71 24 77 38 6 45 -2 66 -70z m-179 -53 c21
-38 -8 -101 -59 -128 -54 -29 -67 18 -26 99 20 40 31 50 50 50 14 0 29 -8 35
-21z m1236 -394 c24 -58 20 -62 -68 -91 -66 -22 -102 -28 -179 -28 -88 -1 -99
1 -137 27 -47 31 -52 45 -19 51 12 3 99 20 192 39 94 19 176 35 183 36 7 1 20
-15 28 -34z"/>
<path d="M5471 8349 c-13 -5 -51 -26 -83 -45 -63 -38 -83 -74 -56 -100 13 -13
22 -10 74 21 63 38 97 51 113 41 5 -4 15 -32 21 -64 17 -83 20 -92 35 -92 25
0 56 35 64 72 17 72 -58 179 -124 177 -11 0 -31 -5 -44 -10z"/>
<path d="M5726 8169 c-35 -42 -58 -87 -51 -100 4 -6 28 2 61 21 30 16 54 28
54 25 0 -2 -14 -25 -32 -50 -23 -32 -29 -48 -21 -56 8 -8 17 -8 30 -1 29 16
103 100 103 117 0 20 -28 31 -43 16 -18 -18 -24 -13 -31 24 -9 45 -35 46 -70
4z"/>
<path d="M5407 8143 c-4 -3 -7 -18 -7 -32 0 -30 -27 -74 -40 -66 -17 10 -89
-15 -100 -35 -33 -63 7 -117 81 -107 79 11 122 64 123 153 1 38 -4 58 -18 73
-20 22 -28 25 -39 14z"/>
<path d="M4750 8100 c-41 -4 -88 -12 -103 -18 -60 -25 -86 -162 -51 -265 18
-54 73 -114 140 -153 41 -24 61 -29 140 -32 l93 -4 23 -65 c39 -113 123 -187
250 -219 121 -32 292 16 387 109 64 62 81 98 81 172 0 46 3 55 18 55 30 0 63
-30 82 -76 31 -71 80 -53 80 28 0 79 -59 128 -154 128 -71 0 -203 -20 -333
-49 -96 -22 -151 -26 -168 -13 -6 4 -26 26 -44 50 -40 52 -96 82 -151 82 l-40
0 6 -53 6 -54 -47 -6 c-68 -10 -140 -9 -169 3 -40 15 -107 81 -127 125 -23 50
-25 142 -4 172 24 34 79 44 153 29 56 -12 65 -12 79 2 14 15 13 18 -11 39 -15
13 -35 22 -44 21 -9 0 -51 -4 -92 -8z m418 -485 c41 -68 83 -101 148 -116 41
-9 65 -7 144 9 52 11 99 16 103 12 14 -13 -50 -77 -95 -95 -47 -19 -188 -22
-232 -5 -81 30 -167 124 -182 196 -5 25 -2 32 18 41 46 23 62 16 96 -42z m432
40 c0 -8 -11 -21 -24 -30 -47 -31 -246 -60 -246 -35 0 15 78 51 144 65 85 19
126 19 126 0z"/>
<path d="M5125 7280 c-10 -33 25 -81 80 -110 66 -33 180 -36 239 -4 47 24 81
66 73 88 -5 13 -15 12 -72 -9 -104 -40 -181 -31 -261 30 -40 30 -51 31 -59 5z"/>
<path d="M6731 7674 c-13 -17 -21 -41 -21 -66 0 -29 -7 -45 -25 -62 -75 -69
45 -101 129 -35 32 25 59 86 52 115 -18 72 -95 99 -135 48z"/>
<path d="M7381 7626 c-9 -11 -7 -22 10 -51 22 -36 22 -37 5 -136 -15 -90 -15
-102 -1 -129 22 -42 60 -40 111 5 l39 35 -33 29 -34 29 7 79 c6 63 4 86 -8
110 -23 43 -72 58 -96 29z"/>
<path d="M7192 7498 c-7 -7 -12 -36 -12 -64 0 -51 -1 -53 -35 -65 -19 -7 -35
-15 -35 -19 1 -27 70 -65 104 -56 35 9 91 59 106 95 15 36 -1 96 -30 111 -26
14 -83 13 -98 -2z"/>
<path d="M7201 7197 c-19 -6 -51 -27 -71 -46 -61 -58 -76 -149 -40 -251 19
-57 18 -75 -7 -66 -8 3 -33 -3 -56 -13 -73 -33 -129 -44 -222 -45 -121 0 -183
28 -276 125 -37 38 -74 69 -83 69 -49 0 -17 -87 56 -156 95 -89 261 -143 393
-128 124 14 225 72 225 129 l0 27 31 -26 c37 -31 74 -34 89 -5 10 18 5 27 -44
74 -34 32 -56 62 -56 75 0 45 23 109 52 144 28 34 33 36 88 36 90 0 112 17 72
53 -21 20 -97 21 -151 4z"/>
<path d="M6965 6644 c-38 -8 -88 -18 -110 -22 -45 -8 -56 -33 -31 -67 14 -19
15 -19 89 -1 99 23 161 54 165 84 4 26 -8 27 -113 6z"/>
<path d="M2445 5316 c-47 -20 -95 -81 -95 -120 0 -36 28 -79 63 -98 12 -7 56
-14 97 -17 l75 -6 -3 -32 c-2 -33 -2 -33 45 -33 48 0 123 -28 155 -57 17 -15
16 -17 -15 -32 -62 -31 -97 -119 -62 -155 9 -8 32 -20 53 -26 71 -19 84 -15
148 58 75 84 73 80 95 166 29 112 26 137 -22 180 -22 21 -47 36 -56 34 -25 -5
-54 -51 -60 -97 -3 -23 -10 -44 -15 -47 -5 -3 -28 6 -52 20 -41 24 -54 44 -72
106 -9 36 -21 48 -55 55 -21 5 -35 18 -48 44 -32 61 -109 86 -176 57z m65 -91
c16 -19 -3 -45 -32 -45 -24 0 -34 26 -18 45 16 19 34 19 50 0z"/>
<path d="M1320 4464 c0 -3 31 -45 68 -93 38 -47 88 -114 113 -148 24 -34 50
-63 57 -63 6 0 12 3 12 6 0 3 -52 73 -116 155 -103 131 -134 165 -134 143z"/>
<path d="M1250 4329 c0 -21 103 -185 107 -172 6 16 -61 144 -86 167 -16 15
-21 16 -21 5z"/>
<path d="M1120 4319 c0 -13 99 -177 112 -185 4 -3 8 0 8 6 0 14 -57 127 -82
163 -20 28 -38 36 -38 16z"/>
<path d="M774 4253 c17 -33 134 -179 165 -207 34 -31 38 -9 7 50 -18 34 -56
80 -100 120 -77 70 -94 79 -72 37z"/>
<path d="M1021 4248 c7 -13 32 -53 57 -90 49 -74 79 -94 37 -25 -14 23 -38 63
-53 89 -15 27 -33 48 -40 48 -10 0 -10 -5 -1 -22z"/>
<path d="M960 4195 c0 -23 72 -132 77 -118 4 12 -63 133 -73 133 -2 0 -4 -7
-4 -15z"/>
<path d="M8998 4339 c-109 -133 -169 -219 -162 -231 8 -12 -1 -22 138 160 64
85 115 159 114 164 -2 6 -43 -36 -90 -93z"/>
<path d="M9138 4292 c-22 -25 -105 -166 -112 -190 -15 -46 11 -19 64 66 30 48
60 97 68 109 16 26 0 39 -20 15z"/>
<path d="M9211 4193 c-49 -84 -63 -122 -41 -108 12 8 110 172 110 185 0 28
-24 1 -69 -77z"/>
<path d="M9567 4168 c-55 -58 -143 -196 -119 -187 11 5 96 99 138 154 79 102
67 124 -19 33z"/>
<path d="M9330 4143 c-28 -42 -48 -79 -44 -82 3 -3 13 3 21 14 8 11 32 44 54
74 40 56 46 71 29 71 -6 0 -33 -34 -60 -77z"/>
<path d="M9407 4099 c-20 -35 -34 -65 -31 -68 2 -2 5 -2 7 0 55 74 77 113 69
121 -6 6 -22 -12 -45 -53z"/>
<path d="M1310 3535 c0 -14 32 -61 54 -77 32 -24 330 -178 344 -178 23 0 12
18 -26 43 -22 14 -88 51 -148 83 -102 54 -148 81 -201 120 -13 9 -23 13 -23 9z"/>
<path d="M1130 3449 c93 -88 171 -139 170 -111 -1 12 -197 167 -217 170 -11 2
8 -22 47 -59z"/>
<path d="M865 3420 c-4 -6 12 -28 36 -48 52 -45 67 -54 81 -50 6 2 -17 27 -50
56 -38 33 -63 48 -67 42z"/>
<path d="M750 3321 c0 -14 98 -83 112 -79 7 3 -13 23 -43 46 -57 43 -69 49
-69 33z"/>
<path d="M650 3263 c1 -20 161 -163 182 -163 19 0 4 22 -53 76 -56 55 -129
104 -129 87z"/>
<path d="M560 3191 c0 -5 25 -30 55 -56 68 -57 72 -46 7 18 -47 46 -62 56 -62
38z"/>
<path d="M9004 3447 c-33 -23 -118 -73 -187 -112 -69 -38 -124 -71 -123 -73 8
-7 211 83 265 118 56 38 133 110 115 110 -5 0 -36 -19 -70 -43z"/>
<path d="M9207 3384 c-115 -93 -144 -131 -49 -65 135 95 195 151 164 151 -5 0
-57 -39 -115 -86z"/>
<path d="M9478 3331 c-31 -30 -47 -51 -38 -51 19 0 107 87 97 96 -3 3 -30 -17
-59 -45z"/>
<path d="M1190 2917 c0 -24 227 -171 440 -285 150 -80 517 -239 528 -228 2 3
-15 13 -39 22 -102 40 -519 259 -709 373 -113 68 -208 125 -212 128 -5 2 -8
-2 -8 -10z"/>
<path d="M9040 2783 c-111 -67 -549 -290 -712 -363 -54 -24 -96 -45 -94 -47 4
-4 94 28 161 57 22 9 56 23 75 30 19 8 99 44 176 80 183 87 310 161 498 292 6
4 8 9 6 11 -3 2 -52 -25 -110 -60z"/>
<path d="M1140 2612 c0 -31 167 -148 294 -207 97 -45 180 -70 141 -42 -11 7
-74 45 -140 82 -66 38 -149 87 -185 110 -87 56 -110 67 -110 57z"/>
<path d="M9012 2443 c-220 -126 -281 -166 -219 -147 41 12 354 171 399 202 43
29 88 82 70 82 -4 0 -117 -62 -250 -137z"/>
<path d="M926 2504 c68 -60 267 -205 330 -240 91 -51 227 -109 300 -128 64
-17 87 -13 33 6 -118 41 -372 182 -568 317 -106 72 -148 92 -95 45z"/>
<path d="M9355 2409 c-239 -159 -421 -256 -560 -299 -49 -15 -67 -30 -36 -30
105 0 551 230 690 355 38 35 51 56 34 55 -5 -1 -62 -37 -128 -81z"/>
<path d="M803 2342 c34 -35 172 -115 189 -110 7 3 -14 24 -47 48 -113 83 -198
120 -142 62z"/>
<path d="M2346 2337 c-15 -11 -17 -21 -12 -53 32 -188 11 -375 -84 -714 -55
-196 -69 -269 -63 -304 5 -26 24 -39 47 -30 7 3 55 80 107 172 129 228 116
217 231 217 108 0 169 -19 214 -66 41 -43 41 -108 0 -162 -76 -100 -425 -277
-546 -277 -64 0 -108 23 -126 67 l-16 38 -24 -28 c-30 -36 -30 -55 1 -98 38
-51 79 -69 155 -69 100 0 216 38 403 131 122 60 178 102 228 169 76 101 73
206 -7 286 -24 25 -44 48 -44 52 0 4 30 23 66 42 92 47 150 94 163 131 19 56
14 112 -16 157 -62 91 -261 216 -490 306 -112 44 -161 52 -187 33z m330 -202
c149 -74 178 -92 227 -144 32 -33 57 -69 57 -80 0 -59 -127 -142 -277 -181
-144 -37 -174 -21 -134 73 30 69 35 109 17 132 l-15 20 -20 -20 c-11 -11 -34
-49 -52 -85 -41 -82 -68 -122 -79 -115 -5 3 -7 11 -5 18 9 23 55 362 55 404 0
58 8 75 34 68 11 -3 98 -44 192 -90z"/>
<path d="M9510 2276 c-73 -43 -135 -96 -112 -96 32 0 228 139 197 140 -6 0
-44 -20 -85 -44z"/>
<path d="M621 2093 c1 -16 158 -146 239 -199 85 -56 347 -191 355 -183 2 2
-35 26 -83 53 -48 27 -183 114 -299 193 -117 79 -213 140 -212 136z"/>
<path d="M9667 1995 c-109 -80 -286 -192 -434 -275 -62 -34 -113 -64 -113 -66
0 -18 320 144 425 215 96 65 178 133 199 167 9 13 15 24 13 24 -1 0 -42 -29
-90 -65z"/>
<path d="M6225 2024 c-16 -2 -65 -9 -107 -15 -172 -23 -504 -121 -635 -188
-51 -25 -63 -36 -63 -55 0 -33 54 -76 138 -112 139 -58 290 -135 377 -192 109
-71 204 -156 190 -170 -18 -18 -193 -111 -256 -137 -86 -34 -192 -63 -269 -71
-84 -9 -55 -22 52 -23 135 -2 276 35 457 120 112 52 87 69 221 -160 93 -161
125 -199 155 -187 27 10 17 69 -45 260 -33 103 -60 199 -60 215 0 23 10 38 43
63 264 210 319 264 364 356 34 69 33 120 -1 172 -50 76 -178 116 -393 124 -76
2 -151 2 -168 0z m382 -117 c136 -31 148 -90 44 -215 -33 -39 -269 -258 -298
-275 -8 -5 -31 32 -72 115 -32 68 -76 142 -96 166 -58 67 -127 109 -168 103
-5 0 10 -22 32 -47 66 -75 113 -153 148 -244 31 -82 42 -150 24 -150 -10 0
-51 31 -115 87 -101 90 -274 190 -488 281 -81 35 -72 42 122 100 152 46 289
78 400 91 100 13 390 5 467 -12z"/>
<path d="M655 1874 c87 -78 238 -165 354 -205 63 -22 61 -22 61 -10 0 5 -41
30 -91 56 -49 26 -149 80 -220 121 -72 41 -134 74 -137 74 -4 -1 11 -17 33
-36z"/>
<path d="M9665 1814 c-82 -47 -205 -115 -272 -151 -68 -35 -123 -66 -123 -68
0 -2 24 3 53 11 80 23 245 106 343 174 86 58 164 119 154 120 -3 0 -72 -39
-155 -86z"/>
<path d="M8075 1815 c-61 -30 -134 -175 -135 -267 0 -93 34 -125 127 -115 87
9 187 63 284 155 50 47 76 78 68 80 -8 1 -75 -27 -148 -63 -73 -36 -140 -65
-148 -63 -11 2 -3 19 31 64 47 63 76 120 76 149 0 9 -13 30 -29 46 -34 33 -77
38 -126 14z m45 -99 c0 -8 -11 -28 -25 -43 -19 -22 -24 -24 -25 -11 0 27 22
68 37 68 7 0 13 -6 13 -14z"/>
<path d="M4817 1748 c-27 -27 -36 -67 -68 -308 -10 -80 -22 -157 -25 -172 -7
-34 -44 -65 -96 -79 -22 -6 -51 -21 -63 -34 -53 -52 -55 -170 -5 -206 15 -11
52 -21 95 -25 60 -6 75 -11 108 -40 20 -19 46 -34 57 -34 18 0 20 7 20 64 0
105 31 157 45 75 8 -48 35 -79 69 -79 19 0 26 7 30 28 8 42 12 339 4 347 -4 4
-17 5 -30 2 -16 -5 -35 -29 -63 -84 -23 -46 -47 -79 -57 -81 -16 -3 -18 5 -18
55 0 32 12 172 27 310 25 234 26 254 11 269 -15 15 -18 15 -41 -8z m-103 -644
c15 -40 -12 -94 -48 -94 -18 0 -46 27 -46 44 0 45 80 87 94 50z"/>
<path d="M3579 1681 c-50 -51 -29 -121 37 -121 83 0 115 98 43 135 -39 21 -46
19 -80 -14z"/>
<path d="M3255 1509 c-31 -15 -52 -17 -98 -13 -42 5 -69 2 -102 -10 -106 -41
-153 -171 -75 -211 38 -19 91 -19 155 1 l52 17 64 -34 c35 -19 85 -56 112 -82
28 -29 54 -47 64 -45 10 2 30 22 46 46 39 58 72 58 87 2 15 -57 46 -74 118
-67 31 3 76 13 99 21 41 14 44 14 72 -10 49 -41 111 -64 177 -64 58 0 154 24
154 39 0 4 -24 8 -52 10 -115 5 -194 35 -204 78 -4 15 -1 47 6 72 7 25 13 57
14 71 1 23 -2 25 -39 23 -22 -2 -75 -3 -119 -3 -87 0 -145 -20 -185 -64 -25
-26 -63 -34 -90 -17 -12 8 -9 22 16 83 43 100 44 105 33 134 -8 20 -15 24 -33
19 -32 -10 -62 -49 -103 -135 -20 -41 -37 -77 -39 -78 -6 -7 -73 30 -78 42 -3
7 -1 32 4 57 21 101 21 109 9 124 -15 18 -15 18 -65 -6z m-115 -120 c-12 -21
-69 -51 -82 -43 -8 5 0 32 15 52 5 6 25 12 44 12 31 0 33 -2 23 -21z m624
-138 c8 -12 -24 -38 -56 -46 -29 -7 -35 4 -22 39 7 17 69 23 78 7z"/>
<path d="M4974 1498 c-24 -11 -44 -48 -44 -78 0 -32 36 -60 75 -60 81 0 105
99 34 135 -32 17 -36 17 -65 3z"/>
</g>
</svg>
